<?xml version="1.0" encoding="UTF-8"?>
<svg id="Layer_1" data-name="Layer 1" xmlns="http://www.w3.org/2000/svg" viewBox="0 0 80 36">
  <defs>
    <style>
      .cls-1 {
        fill: #c3fd03;
      }

      .cls-2 {
        fill: #16151b;
      }
    </style>
  </defs>
  <g>
    <path class="cls-1" d="M27.21,19.19c-.37.06-.48.54-.48.54,0,0,.28-.33.49-.24.21.1.19.52.1.66.23-.26.28-1.03-.12-.97Z"/>
    <path class="cls-1" d="M29.1,18.38l-1.96-1.21s-1.32.63-1.03,3.62c0,0,.49-2.71,1.08-3l1.28.75s-.9,1.32-.75,3.49c0,0,.55-2.94,1.38-3.66Z"/>
    <path class="cls-1" d="M31.72.77H9.46C6.04.77,3.26,3.54,3.26,6.96v22.17c0,3.42,2.77,6.19,6.19,6.19h22.26c3.42,0,6.19-2.77,6.19-6.19V6.96c0-3.42-2.77-6.19-6.19-6.19ZM28.27,26.19c-1.74,1.98-4.01,3.03-6.57,3.03s-4.73-.8-6.3-2.38c-2.81-2.82-2.82-7.09-2.81-7.27v-9.11c.11-1.01.92-2.93,3.22-2.93,1.98,0,2.82,1.89,2.99,2.88v.23s0,1.3,0,1.3c.5,0,1.17.01,1.53-.01.78-.06,1.72.27,2.38.84.66.57,1.05,1.35,1.12,2.24.07.88-.29,1.78-.98,2.47-.66.66-1.55,1.02-2.36.96-.47-.04-1.2-.05-1.74-.06v2.28c0,.65.89,2.19,2.63,2.19s2.57-1.22,2.6-1.27c.22.2.44.6.25,1.09-.22.55-1.41,1.55-2.85,1.55-2.46,0-4.03-2.08-4.03-3.55v-3.7h.71c.07,0,1.68,0,2.55.08.4.03.88-.18,1.25-.55.4-.39.6-.89.57-1.37-.04-.52-.25-.95-.63-1.28-.45-.38-1.02-.53-1.36-.5-.71.06-2.29,0-2.36,0l-.68-.02v-2.63c-.02-.28-.42-1.73-1.59-1.73-1.52,0-1.78,1.4-1.81,1.64v9s.02,3.88,2.41,6.28c1.3,1.3,3.08,2.02,5.29,1.96,5.03-.13,6.4-3.98,7.03-4.72l1.41.08c-.02.06-.57,1.54-1.87,3.02ZM30.8,19.35c-.06,1.63-1.32,2.95-2.95,2.95s-2.8-1.16-2.8-2.79,1.01-2.57,2.18-2.79l2.41,1.59s-1.7,2-1.58,3.96c0,0,1.21-3.01,2.33-3.93l-2.68-1.94c.07,0,.27-.13.33-.09,1.93,1.13,2.83,1.32,2.76,3.04Z"/>
    <path class="cls-2" d="M21.7,27.82c-2.21.06-4-.66-5.29-1.96-2.39-2.4-2.41-6.24-2.41-6.28v-9c.03-.23.29-1.64,1.81-1.64,1.17,0,1.57,1.45,1.59,1.73v2.63s.69.02.69.02c.07,0,1.65.05,2.36,0,.34-.03.91.12,1.36.5.38.33.59.76.63,1.28.04.48-.17.97-.57,1.37-.37.37-.85.58-1.25.55-.87-.07-2.49-.07-2.55-.08h-.71s0,3.69,0,3.69c0,1.47,1.57,3.55,4.03,3.55,1.44,0,2.63-.99,2.85-1.55.2-.48-.03-.88-.25-1.09-.04.05-.91,1.27-2.6,1.27s-2.63-1.53-2.63-2.19v-2.28c.54,0,1.27.03,1.74.06.81.06,1.69-.3,2.36-.96.69-.68,1.04-1.58.98-2.47-.07-.9-.45-1.67-1.12-2.24-.66-.57-1.6-.9-2.38-.84-.36.03-1.02.02-1.53.01v-1.52c-.18-1-1.02-2.88-3-2.88-2.3,0-3.11,1.91-3.21,2.93v.04s0,9.07,0,9.07c0,.18,0,4.45,2.81,7.27,1.57,1.58,3.69,2.38,6.3,2.38s4.82-1.05,6.57-3.03c1.3-1.48,1.85-2.96,1.87-3.02l-1.41-.08c-.62.74-1.99,4.59-7.03,4.72Z"/>
    <path class="cls-2" d="M28.04,16.31c-.06-.04-.26.09-.33.09l2.68,1.94c-1.11.92-2.33,3.93-2.33,3.93-.12-1.96,1.58-3.96,1.58-3.96l-2.41-1.59c-1.17.22-2.18,1.24-2.18,2.79,0,1.63,1.17,2.79,2.8,2.79s2.89-1.32,2.95-2.95c.07-1.71-.83-1.91-2.76-3.04ZM27.33,20.16c.09-.14.11-.57-.1-.66-.21-.1-.49.24-.49.24,0,0,.11-.48.48-.54.4-.06.34.71.12.97ZM27.72,22.04c-.15-2.17.75-3.49.75-3.49l-1.28-.75c-.59.29-1.08,3-1.08,3-.29-3,1.03-3.62,1.03-3.62l1.96,1.21c-.83.72-1.38,3.66-1.38,3.66Z"/>
  </g>
  <g>
    <path class="cls-2" d="M66.12,19.19c-.37.06-.48.54-.48.54,0,0,.28-.33.49-.24.21.1.19.52.1.66.23-.26.28-1.03-.12-.97Z"/>
    <path class="cls-2" d="M70.63.77h-22.26c-3.42,0-6.19,2.77-6.19,6.19v22.17c0,3.42,2.77,6.19,6.19,6.19h22.26c3.42,0,6.19-2.77,6.19-6.19V6.96c0-3.42-2.77-6.19-6.19-6.19ZM67.18,26.19c-1.74,1.98-4.01,3.03-6.57,3.03s-4.73-.8-6.3-2.38c-2.81-2.82-2.82-7.09-2.81-7.27v-9.11c.11-1.01.92-2.93,3.22-2.93,1.98,0,2.82,1.89,2.99,2.88v.23s0,1.3,0,1.3c.5,0,1.17.01,1.53-.01.78-.06,1.72.27,2.38.84.66.57,1.05,1.35,1.12,2.24.07.88-.29,1.78-.98,2.47-.66.66-1.55,1.02-2.36.96-.47-.04-1.2-.05-1.74-.06v2.28c0,.65.89,2.19,2.63,2.19s2.57-1.22,2.6-1.27c.22.2.44.6.25,1.09-.22.55-1.41,1.55-2.85,1.55-2.46,0-4.03-2.08-4.03-3.55v-3.7h.71c.07,0,1.68,0,2.55.08.4.03.88-.18,1.25-.55.4-.39.6-.89.57-1.37-.04-.52-.25-.95-.63-1.28-.45-.38-1.02-.53-1.36-.5-.71.06-2.29,0-2.36,0l-.68-.02v-2.63c-.02-.28-.42-1.73-1.59-1.73-1.52,0-1.78,1.4-1.81,1.64v9s.02,3.88,2.41,6.28c1.3,1.3,3.08,2.02,5.29,1.96,5.03-.13,6.4-3.98,7.03-4.72l1.41.08c-.02.06-.57,1.54-1.87,3.02ZM69.71,19.35c-.06,1.63-1.32,2.95-2.95,2.95s-2.8-1.16-2.8-2.79,1.01-2.57,2.18-2.79l2.41,1.59s-1.7,2-1.58,3.96c0,0,1.21-3.01,2.33-3.93l-2.68-1.94c.07,0,.27-.13.33-.09,1.93,1.13,2.83,1.32,2.76,3.04Z"/>
    <path class="cls-2" d="M68.01,18.38l-1.96-1.21s-1.32.63-1.03,3.62c0,0,.49-2.71,1.08-3l1.28.75s-.9,1.32-.75,3.49c0,0,.55-2.94,1.38-3.66Z"/>
    <path class="cls-1" d="M60.61,27.82c-2.21.06-4-.66-5.29-1.96-2.39-2.4-2.41-6.24-2.41-6.28v-9c.03-.23.29-1.64,1.81-1.64,1.17,0,1.57,1.45,1.59,1.73v2.63s.69.02.69.02c.07,0,1.65.05,2.36,0,.34-.03.91.12,1.36.5.38.33.59.76.63,1.28.04.48-.17.97-.57,1.37-.37.37-.85.58-1.25.55-.87-.07-2.49-.07-2.55-.08h-.71s0,3.69,0,3.69c0,1.47,1.57,3.55,4.03,3.55,1.44,0,2.63-.99,2.85-1.55.2-.48-.03-.88-.25-1.09-.04.05-.91,1.27-2.6,1.27s-2.63-1.53-2.63-2.19v-2.28c.54,0,1.27.03,1.74.06.81.06,1.69-.3,2.36-.96.69-.68,1.04-1.58.98-2.47-.07-.9-.45-1.67-1.12-2.24-.66-.57-1.6-.9-2.38-.84-.36.03-1.02.02-1.53.01v-1.52c-.18-1-1.02-2.88-3-2.88-2.3,0-3.11,1.91-3.21,2.93v.04s0,9.07,0,9.07c0,.18,0,4.45,2.81,7.27,1.57,1.58,3.69,2.38,6.3,2.38s4.82-1.05,6.57-3.03c1.3-1.48,1.85-2.96,1.87-3.02l-1.41-.08c-.62.74-1.99,4.59-7.03,4.72Z"/>
    <path class="cls-1" d="M66.95,16.31c-.06-.04-.26.09-.33.09l2.68,1.94c-1.11.92-2.33,3.93-2.33,3.93-.12-1.96,1.58-3.96,1.58-3.96l-2.41-1.59c-1.17.22-2.18,1.24-2.18,2.79,0,1.63,1.17,2.79,2.8,2.79s2.89-1.32,2.95-2.95c.07-1.71-.83-1.91-2.76-3.04ZM66.24,20.16c.09-.14.11-.57-.1-.66-.21-.1-.49.24-.49.24,0,0,.11-.48.48-.54.4-.06.34.71.12.97ZM66.63,22.04c-.15-2.17.75-3.49.75-3.49l-1.28-.75c-.59.29-1.08,3-1.08,3-.29-3,1.03-3.62,1.03-3.62l1.96,1.21c-.83.72-1.38,3.66-1.38,3.66Z"/>
  </g>
</svg>