<?xml version="1.0" encoding="UTF-8"?>
<svg id="Layer_1" data-name="Layer 1" xmlns="http://www.w3.org/2000/svg" viewBox="0 0 80 36">
  <defs>
    <style>
      .cls-1 {
        fill: #fff;
      }

      .cls-2 {
        fill: #c3fd03;
      }
    </style>
  </defs>
  <g>
    <path class="cls-2" d="M17.98,17.67c-.27.04-.35.39-.35.39,0,0,.21-.24.36-.17.15.07.13.38.07.48.17-.19.2-.75-.08-.71h0Z"/>
    <path class="cls-2" d="M21.99,4.78H4.47c-1.94,0-3.52,1.57-3.52,3.52v17.52c0,1.94,1.57,3.52,3.52,3.52h17.52c1.94,0,3.52-1.57,3.52-3.52V8.3c0-1.94-1.57-3.52-3.52-3.52ZM18.75,22.76c-1.27,1.44-2.92,2.2-4.77,2.2s-3.43-.58-4.58-1.73c-2.04-2.05-2.05-5.15-2.05-5.28v-6.62c.08-.74.67-2.13,2.34-2.13,1.44,0,2.05,1.37,2.17,2.1v1.1c.37,0,.85,0,1.11-.01.57-.04,1.25.19,1.73.61.48.41.76.98.81,1.63.05.64-.21,1.3-.71,1.79-.48.48-1.12.74-1.71.7-.34-.03-.87-.04-1.27-.05v1.66c0,.48.65,1.59,1.91,1.59s1.87-.89,1.89-.93c.16.15.32.44.18.79-.16.4-1.03,1.12-2.07,1.12-1.79,0-2.93-1.51-2.93-2.58v-2.69h.51s1.22,0,1.86.06c.29.02.64-.13.91-.4.29-.29.44-.65.41-.99-.03-.38-.18-.69-.46-.93-.32-.28-.74-.38-.99-.36-.52.04-1.67,0-1.72,0l-.49-.02v-1.91c-.02-.2-.3-1.26-1.16-1.26-1.1,0-1.29,1.02-1.32,1.19v6.54s.01,2.82,1.75,4.56c.94.94,2.24,1.47,3.85,1.42,3.66-.1,4.66-2.89,5.11-3.43l1.03.06s-.41,1.12-1.36,2.19h.02ZM20.6,17.79c-.05,1.18-.96,2.14-2.14,2.14s-2.03-.84-2.03-2.03.74-1.87,1.58-2.03l1.75,1.16s-1.23,1.46-1.15,2.88c0,0,.88-2.19,1.69-2.86l-1.95-1.41s.2-.09.24-.07c1.41.82,2.06.96,2.01,2.21h0Z"/>
    <path class="cls-2" d="M19.36,17.08l-1.42-.88s-.96.46-.75,2.63c0,0,.36-1.97.78-2.18l.93.55s-.66.96-.55,2.54c0,0,.4-2.13,1.01-2.66Z"/>
  </g>
  <g>
    <path class="cls-1" d="M39.86,12.05h-4.07v11.06h-2.73v-11.06h-4.01v-2.22h10.81v2.22Z"/>
    <path class="cls-1" d="M41.23,10.69c0-.39.13-.72.4-.98.26-.26.62-.38,1.08-.38s.81.13,1.08.38c.27.26.4.58.4.98s-.14.73-.41.98c-.27.26-.63.38-1.07.38s-.8-.13-1.07-.38c-.27-.26-.41-.58-.41-.98ZM44.03,23.1h-2.64v-9.86h2.64v9.86Z"/>
    <path class="cls-1" d="M49.78,19.15l-.95.95v3.01h-2.63v-14h2.63v7.76l.51-.66,2.53-2.96h3.16l-3.56,4.11,3.87,5.75h-3.03s-2.53-3.96-2.53-3.96Z"/>
    <path class="cls-1" d="M61.51,20.38c0-.32-.16-.58-.48-.76-.32-.19-.83-.35-1.54-.5-2.35-.49-3.52-1.49-3.52-2.99,0-.88.36-1.61,1.09-2.19.73-.59,1.68-.88,2.85-.88,1.25,0,2.25.29,3,.88s1.13,1.36,1.13,2.3h-2.63c0-.38-.12-.69-.36-.93-.24-.25-.62-.37-1.14-.37-.44,0-.79.1-1.03.3-.24.2-.36.46-.36.77,0,.29.14.53.41.71.28.18.74.33,1.4.46s1.21.28,1.66.44c1.39.51,2.09,1.39,2.09,2.65,0,.9-.39,1.63-1.16,2.18-.77.56-1.77.83-2.99.83-.83,0-1.56-.15-2.2-.44s-1.14-.7-1.51-1.21c-.36-.51-.55-1.07-.55-1.66h2.5c.02.47.2.83.52,1.08s.75.37,1.29.37c.5,0,.89-.1,1.14-.29.26-.19.39-.44.39-.75Z"/>
    <path class="cls-1" d="M68.55,23.1h-2.64v-14h2.64v14Z"/>
    <path class="cls-1" d="M74.4,19.37l1.82-6.13h2.83l-3.97,11.39-.22.52c-.59,1.29-1.56,1.93-2.92,1.93-.38,0-.77-.06-1.17-.17v-2h.4c.5,0,.87-.07,1.12-.22s.44-.4.58-.76l.31-.81-3.45-9.89h2.83l1.83,6.13h0Z"/>
  </g>
</svg>