<?xml version="1.0" encoding="UTF-8"?>
<svg id="Layer_1" data-name="Layer 1" xmlns="http://www.w3.org/2000/svg" viewBox="0 0 80 36">
  <defs>
    <style>
      .cls-1 {
        fill: #fff;
      }

      .cls-2 {
        fill: #c3fd03;
      }

      .cls-3 {
        fill: #16151b;
      }
    </style>
  </defs>
  <rect class="cls-3" width="80" height="36"/>
  <g>
    <g>
      <path class="cls-2" d="M17.98,18.62c-.27.04-.35.39-.35.39,0,0,.21-.24.36-.17.15.07.13.38.07.48.17-.19.2-.75-.08-.71Z"/>
      <path class="cls-2" d="M21.99,5.72H4.47c-1.94,0-3.52,1.57-3.52,3.52v17.52c0,1.94,1.57,3.52,3.52,3.52h17.52c1.94,0,3.52-1.57,3.52-3.52V9.24c0-1.94-1.57-3.52-3.52-3.52ZM18.75,23.7c-1.27,1.44-2.92,2.2-4.77,2.2s-3.43-.58-4.58-1.73c-2.04-2.05-2.05-5.15-2.05-5.28v-6.62c.08-.74.67-2.13,2.34-2.13,1.44,0,2.05,1.37,2.17,2.1v.16s0,.94,0,.94c.37,0,.85,0,1.11-.01.57-.04,1.25.19,1.73.61.48.41.76.98.81,1.63.05.64-.21,1.3-.71,1.79-.48.48-1.12.74-1.71.7-.34-.03-.87-.04-1.27-.05v1.66c0,.48.65,1.59,1.91,1.59s1.87-.89,1.89-.93c.16.15.32.44.18.79-.16.4-1.03,1.12-2.07,1.12-1.79,0-2.93-1.51-2.93-2.58v-2.69h.51s1.22,0,1.86.06c.29.02.64-.13.91-.4.29-.29.44-.65.41-.99-.03-.38-.18-.69-.46-.93-.32-.28-.74-.38-.99-.36-.52.04-1.67,0-1.72,0l-.49-.02v-1.91c-.02-.2-.3-1.26-1.16-1.26-1.1,0-1.29,1.02-1.32,1.19v6.54s.01,2.82,1.75,4.56c.94.94,2.24,1.47,3.85,1.42,3.66-.1,4.66-2.89,5.11-3.43l1.03.06s-.41,1.12-1.36,2.19ZM20.6,18.73c-.05,1.18-.96,2.14-2.14,2.14s-2.03-.84-2.03-2.03.74-1.87,1.58-2.03l1.75,1.16s-1.23,1.46-1.15,2.88c0,0,.88-2.19,1.69-2.86l-1.95-1.41c.05,0,.2-.09.24-.07,1.41.82,2.06.96,2.01,2.21Z"/>
      <path class="cls-2" d="M19.36,18.03l-1.42-.88s-.96.46-.75,2.63c0,0,.36-1.97.78-2.18l.93.55s-.66.96-.55,2.54c0,0,.4-2.13,1.01-2.66Z"/>
      <path class="cls-3" d="M13.98,24.88c-1.61.04-2.9-.48-3.85-1.42-1.74-1.74-1.75-4.53-1.75-4.56v-6.54c.02-.17.21-1.19,1.32-1.19.85,0,1.14,1.05,1.15,1.26v1.91s.5.02.5.02c.05,0,1.2.04,1.72,0,.25-.02.66.09.99.36.28.24.43.55.46.93.03.35-.12.71-.41.99-.27.27-.62.42-.91.4-.64-.05-1.81-.05-1.86-.05h-.51s0,2.68,0,2.68c0,1.07,1.14,2.58,2.93,2.58,1.05,0,1.91-.72,2.07-1.12.14-.35-.02-.64-.18-.79-.03.04-.66.93-1.89.93s-1.91-1.11-1.91-1.59v-1.66c.39,0,.93.02,1.27.05.59.05,1.23-.21,1.71-.7.5-.5.76-1.15.71-1.79-.05-.65-.33-1.21-.81-1.63-.48-.41-1.16-.65-1.73-.61-.26.02-.74.02-1.11.01v-1.11c-.13-.72-.74-2.1-2.18-2.1-1.67,0-2.26,1.39-2.34,2.13v.03s0,6.59,0,6.59c0,.13,0,3.23,2.05,5.28,1.14,1.15,2.68,1.73,4.58,1.73s3.51-.76,4.77-2.2c.94-1.08,1.34-2.15,1.36-2.19l-1.03-.06c-.45.54-1.45,3.34-5.11,3.43Z"/>
      <path class="cls-3" d="M18.59,16.52s-.19.06-.24.07l1.95,1.41c-.81.67-1.69,2.86-1.69,2.86-.09-1.42,1.15-2.88,1.15-2.88l-1.75-1.16c-.85.16-1.58.9-1.58,2.03,0,1.18.85,2.03,2.03,2.03s2.1-.96,2.14-2.14c.05-1.25-.6-1.39-2.01-2.21ZM18.07,19.32c.06-.1.08-.41-.07-.48-.15-.07-.36.17-.36.17,0,0,.08-.35.35-.39.29-.05.25.51.08.71ZM18.35,20.69c-.11-1.58.55-2.54.55-2.54l-.93-.55c-.43.21-.78,2.18-.78,2.18-.21-2.18.75-2.63.75-2.63l1.42.88c-.6.53-1.01,2.66-1.01,2.66Z"/>
    </g>
    <g>
      <path class="cls-1" d="M39.86,12.99h-4.07v11.06h-2.73v-11.06h-4.01v-2.22h10.81v2.22Z"/>
      <path class="cls-1" d="M41.23,11.63c0-.39.13-.72.4-.98.26-.26.62-.38,1.08-.38s.81.13,1.08.38c.27.26.4.58.4.98s-.14.73-.41.98c-.27.26-.63.38-1.07.38s-.8-.13-1.07-.38c-.27-.26-.41-.58-.41-.98ZM44.03,24.05h-2.64v-9.86h2.64v9.86Z"/>
      <path class="cls-1" d="M49.78,20.09l-.95.95v3.01h-2.63v-14h2.63v7.76l.51-.66,2.53-2.96h3.16l-3.56,4.11,3.87,5.75h-3.03l-2.53-3.96Z"/>
      <path class="cls-1" d="M61.51,21.32c0-.32-.16-.58-.48-.76-.32-.19-.83-.35-1.54-.5-2.35-.49-3.52-1.49-3.52-2.99,0-.88.36-1.61,1.09-2.19.73-.59,1.68-.88,2.85-.88,1.25,0,2.25.29,3,.88.75.59,1.13,1.36,1.13,2.3h-2.63c0-.38-.12-.69-.36-.93-.24-.25-.62-.37-1.14-.37-.44,0-.79.1-1.03.3-.24.2-.36.46-.36.77,0,.29.14.53.41.71.28.18.74.33,1.4.46.66.13,1.21.28,1.66.44,1.39.51,2.09,1.39,2.09,2.65,0,.9-.39,1.63-1.16,2.18-.77.56-1.77.83-2.99.83-.83,0-1.56-.15-2.2-.44-.64-.29-1.14-.7-1.51-1.21-.36-.51-.55-1.07-.55-1.66h2.5c.02.47.2.83.52,1.08.32.25.75.37,1.29.37.5,0,.89-.1,1.14-.29.26-.19.39-.44.39-.75Z"/>
      <path class="cls-1" d="M68.55,24.05h-2.64v-14h2.64v14Z"/>
      <path class="cls-1" d="M74.4,20.32l1.82-6.13h2.83l-3.97,11.39-.22.52c-.59,1.29-1.56,1.93-2.92,1.93-.38,0-.77-.06-1.17-.17v-2h.4c.5,0,.87-.07,1.12-.22.25-.15.44-.4.58-.76l.31-.81-3.45-9.89h2.83l1.83,6.13Z"/>
    </g>
  </g>
</svg>