<?xml version="1.0" encoding="UTF-8"?>
<svg id="Layer_1" data-name="Layer 1" xmlns="http://www.w3.org/2000/svg" viewBox="0 0 80 36">
  <defs>
    <style>
      .cls-1 {
        fill: #c3fd03;
      }

      .cls-2 {
        fill: #16151b;
      }
    </style>
  </defs>
  <g>
    <path class="cls-2" d="M17.93,18.62c-.27.04-.35.39-.35.39,0,0,.21-.24.36-.17s.14.38.07.48c.17-.19.2-.75-.08-.71Z"/>
    <path class="cls-2" d="M21.97,5.69H4.36c-1.93,0-3.5,1.57-3.5,3.5v17.61c0,1.93,1.57,3.5,3.5,3.5h17.61c1.93,0,3.5-1.57,3.5-3.5V9.2c0-1.93-1.57-3.5-3.5-3.5ZM18.7,23.72c-1.27,1.45-2.92,2.21-4.78,2.21s-3.44-.58-4.59-1.73c-2.04-2.06-2.05-5.16-2.05-5.3v-6.64c.08-.74.67-2.13,2.34-2.13,1.44,0,2.06,1.37,2.18,2.1v.16s0,.94,0,.94c.37,0,.85,0,1.11-.01.57-.05,1.25.19,1.74.61.48.42.77.98.81,1.63.05.64-.21,1.3-.71,1.8-.48.48-1.13.74-1.72.7-.34-.03-.88-.04-1.27-.05v1.66c0,.48.65,1.59,1.91,1.59s1.87-.89,1.9-.93c.16.15.32.44.18.79-.16.4-1.03,1.13-2.08,1.13-1.79,0-2.94-1.52-2.94-2.58v-2.69h.51s1.22,0,1.86.06c.29.02.64-.13.91-.4.29-.29.44-.65.41-1-.03-.38-.18-.69-.46-.93-.32-.28-.74-.38-.99-.37-.52.04-1.67,0-1.72,0l-.5-.02v-1.92c-.02-.2-.31-1.26-1.16-1.26-1.11,0-1.3,1.02-1.32,1.19v6.55s.01,2.83,1.76,4.57c.94.95,2.24,1.47,3.86,1.43,3.67-.1,4.67-2.9,5.12-3.44l1.03.06s-.42,1.12-1.36,2.2ZM20.55,18.73c-.05,1.19-.96,2.15-2.15,2.15s-2.04-.84-2.04-2.03.74-1.88,1.59-2.03l1.75,1.16s-1.24,1.46-1.15,2.89c0,0,.88-2.19,1.7-2.87l-1.95-1.41c.05,0,.2-.1.24-.07,1.41.82,2.06.96,2.01,2.21Z"/>
    <path class="cls-2" d="M19.31,18.03l-1.42-.88s-.96.46-.75,2.64c0,0,.36-1.97.79-2.18l.93.55s-.66.96-.55,2.55c0,0,.4-2.14,1.01-2.67Z"/>
    <path class="cls-1" d="M13.92,24.9c-1.61.04-2.91-.48-3.86-1.43-1.74-1.75-1.76-4.54-1.76-4.57v-6.55c.02-.17.21-1.19,1.32-1.19.85,0,1.14,1.06,1.16,1.26v1.92s.5.02.5.02c.05,0,1.2.04,1.72,0,.25-.02.66.09.99.37.28.24.43.55.46.93.03.35-.12.71-.41,1-.27.27-.62.42-.91.4-.64-.05-1.81-.05-1.86-.05h-.51s0,2.69,0,2.69c0,1.07,1.14,2.58,2.94,2.58,1.05,0,1.92-.72,2.08-1.13.14-.35-.02-.64-.18-.79-.03.04-.66.93-1.9.93s-1.91-1.12-1.91-1.59v-1.66c.39,0,.93.02,1.27.05.59.05,1.23-.22,1.72-.7.5-.5.76-1.15.71-1.8-.05-.65-.33-1.22-.81-1.63-.48-.42-1.17-.65-1.74-.61-.26.02-.74.02-1.11.01v-1.11c-.13-.73-.74-2.1-2.19-2.1-1.67,0-2.26,1.39-2.34,2.13v.03s0,6.61,0,6.61c0,.13,0,3.24,2.05,5.3,1.14,1.15,2.69,1.73,4.59,1.73s3.51-.76,4.78-2.21c.95-1.08,1.35-2.15,1.36-2.2l-1.03-.06c-.45.54-1.45,3.34-5.12,3.44Z"/>
    <path class="cls-1" d="M18.54,16.52s-.19.06-.24.07l1.95,1.41c-.81.67-1.7,2.87-1.7,2.87-.09-1.43,1.15-2.89,1.15-2.89l-1.75-1.16c-.85.16-1.59.9-1.59,2.03,0,1.19.85,2.03,2.04,2.03s2.1-.96,2.15-2.15c.05-1.25-.6-1.39-2.01-2.21ZM18.02,19.33c.06-.1.08-.41-.07-.48s-.36.17-.36.17c0,0,.08-.35.35-.39.29-.05.25.51.08.71ZM18.3,20.69c-.11-1.58.55-2.55.55-2.55l-.93-.55c-.43.21-.79,2.18-.79,2.18-.21-2.18.75-2.64.75-2.64l1.42.88c-.6.53-1.01,2.67-1.01,2.67Z"/>
  </g>
  <g>
    <path d="M39.86,12.98h-4.08v11.08h-2.74v-11.08h-4.02v-2.22h10.84v2.22Z"/>
    <path d="M41.23,11.62c0-.4.13-.72.4-.98.26-.26.63-.38,1.08-.38s.81.13,1.08.38c.27.26.4.58.4.98s-.14.73-.41.99c-.27.26-.63.38-1.07.38s-.8-.13-1.07-.38c-.27-.26-.41-.58-.41-.99ZM44.04,24.06h-2.65v-9.89h2.65v9.89Z"/>
    <path d="M49.8,20.09l-.95.95v3.02h-2.64v-14.03h2.64v7.78l.51-.66,2.53-2.97h3.17l-3.57,4.12,3.88,5.77h-3.03l-2.54-3.97Z"/>
    <path d="M61.56,21.33c0-.32-.16-.58-.48-.76-.32-.19-.83-.35-1.54-.5-2.35-.49-3.53-1.49-3.53-3,0-.88.36-1.61,1.09-2.2.73-.59,1.68-.88,2.86-.88,1.25,0,2.26.3,3.01.89.75.59,1.13,1.36,1.13,2.3h-2.64c0-.38-.12-.69-.37-.94-.24-.25-.62-.37-1.14-.37-.44,0-.79.1-1.03.3-.24.2-.37.46-.37.77,0,.29.14.53.42.71.28.18.74.34,1.4.47.66.13,1.21.28,1.66.44,1.39.51,2.09,1.4,2.09,2.66,0,.9-.39,1.63-1.16,2.19-.77.56-1.77.84-3,.84-.83,0-1.56-.15-2.21-.44-.64-.3-1.15-.7-1.51-1.22-.37-.51-.55-1.07-.55-1.67h2.5c.02.47.2.83.52,1.08.32.25.76.37,1.3.37.51,0,.89-.1,1.15-.29.26-.19.39-.44.39-.75Z"/>
    <path d="M68.61,24.06h-2.65v-14.03h2.65v14.03Z"/>
    <path d="M74.48,20.32l1.83-6.15h2.83l-3.97,11.42-.22.52c-.59,1.29-1.57,1.94-2.92,1.94-.38,0-.77-.06-1.17-.17v-2h.4c.5,0,.87-.07,1.12-.22.25-.15.44-.41.58-.76l.31-.81-3.46-9.91h2.84l1.84,6.15Z"/>
  </g>
</svg>