<?xml version="1.0" encoding="UTF-8"?>
<svg id="Layer_1" data-name="Layer 1" xmlns="http://www.w3.org/2000/svg" viewBox="0 0 99 28">
  <defs>
    <style>
      .cls-1 {
        fill: #fff;
      }
    </style>
  </defs>
  <path d="M64.97,19.17c.04.35.69,2.93.82,3.02.38.26.99-.08,1.31-.36.61-.53,3.52-5.21,3.41-5.79-.72-.93-1.83-1.67-2.18-2.86-.78-2.7.36-6.62,3.68-6.32,4.35.39.81,7.81,1.2,8.21,3.6.03,4.67-4.52,7.97-5.17,1.66-.33,3.53.13,3.75,2,.74.02.86-.94,1.61-1.44.83-.55,2.01-.98,2.78-.15.57.94-1.8,7.86-1.97,9.7-.39,4.17,1.27,4.12,3.04.91.48-.88.35-2.16,1.45-1.86,1.23,4.69-6.91,9.68-8.25,3.44-.37-.07-.34-.05-.55.17-.53.55-.82,1.24-1.6,1.79-3.74,2.65-6.51-.35-6.64-4.23-.05-1.45.66-2.92.67-4.36l-3.28.57c-.96,2.47-4.65,8.15-7.23,8.84-2.72.73-3.72-4.92-3.73-6.77-.8.77-1.05,2.04-1.64,3-1.2,1.93-3.21,4.35-5.76,3.7-4.52-1.15-.7-8.79-1.12-11.6-.05-.36.15-.45-.4-.4-1.66.3-4.41,5.61-5.05,7.16-.54,1.3-1.01,4.52-2.26,4.91-2.64.82-2.32-2.8-2.54-2.8-.69.2-.9.99-1.46,1.46-2.53,2.14-5.52,2.04-6.4-1.46-3.02,4.11-7.97,4.12-8.65-1.59-2.94,6.19-12.07,9.66-16.87,3.53C1.84,15.14,11.65-3,23.64.69c5.35,1.65,4.46,9.76-1.02,9.61-.5-.5,2.67-4.62.54-7.21-1.6-1.93-5.23-.16-6.79,1.13-4.17,3.44-5.78,9.42-5.17,14.66.72,6.11,6.61,7.96,11.16,4,3.87-3.37,4.16-9.42,7.9-12,2.26-1.56,4.78-1.75,6.08,1.01.81-1.42,2.93-2.86,4.37-1.41-.15,2.69-3.23,9.91-2.18,12.21.12.26.1.39.48.35,2.38.14,4.38-5.42,4.91-7.33.44-1.59.47-3.63.87-4.95.35-1.16,2.75-1.07,3.27.08s-.05,3.49-.13,4.76l2.13-3.04c1.35-1.59,4.29-4.21,6.12-1.86,1.95,2.5-1.45,8.27-.62,11.2l.48.35c2.31.1,4.17-4.73,4.54-6.63.3-1.51-.02-3.23.91-4.65.7-1.06,2.46-1.74,3.46-.79.22,2.88-.3,6.17,0,9ZM71.62,13.75c.28-1.58.87-3.16.41-4.77-1.41-1.05-1.56,1.81-1.47,2.79.03.31.49,2.56,1.06,1.98ZM34.21,12c-2.14-.09-3.95,4.9-4.13,6.65-.13,1.32-.31,3.62.98,4.32,1.99.6,3.53-3.51,3.94-4.99.36-1.28,1.38-5.89-.79-5.98ZM82.99,11.95c-2.11.18-3.96,5.43-4.14,7.25-.39,3.9,1.98,5.4,4.01,1.61.79-1.48,3.09-9.1.13-8.85Z"/>
  <path class="cls-1" d="M82.99,11.95c2.95-.25.66,7.37-.13,8.85-2.03,3.79-4.4,2.29-4.01-1.61.18-1.81,2.03-7.07,4.14-7.25Z"/>
  <path class="cls-1" d="M34.21,12c2.17.09,1.15,4.7.79,5.98-.41,1.48-1.94,5.59-3.94,4.99-1.3-.7-1.12-3-.98-4.32.18-1.74,1.99-6.74,4.13-6.65Z"/>
  <path class="cls-1" d="M71.62,13.75c-.57.58-1.03-1.68-1.06-1.98-.09-.97.06-3.84,1.47-2.79.46,1.61-.13,3.19-.41,4.77Z"/>
</svg>