<?xml version="1.0" encoding="UTF-8"?>
<svg id="Layer_1" data-name="Layer 1" xmlns="http://www.w3.org/2000/svg" viewBox="0 0 99 28">
  <path d="M26.24,22.36l-3.97-2.12c-.04,1.12-.8,2.09-1.93,2.25H6.64c-.84-.04-1.71-.65-1.92-1.48-.16-.63-.15-3.16-.07-3.87,0-.06,0-.11.03-.17l5.6-2.93-5.6-2.98v-3.71c.13-1.01.95-1.79,1.97-1.87h13.46c1.02.07,1.9.8,2.08,1.82.02.13,0,.26.01.37,0,.07-.03.08.07.07l3.97-2.07v3.37l-9.37,4.93,9.37,4.97v3.41ZM20.42,8.66H6.57l6.95,3.64c2.21-1.17,4.46-2.26,6.65-3.47.07-.04.21-.1.24-.17ZM20.47,19.38c-.33-.26-.73-.45-1.1-.65-1.93-1.04-3.9-2.01-5.83-3.04l-6.91,3.62,13.85.07Z"/>
  <path d="M42.44,7.46v2.6c-2.04-1.05-4.81-1.69-6.79-.18-2.13,1.61-1.83,5,.55,6.21,2.03,1.03,4.33.45,6.24-.55v2.64c-2.09.92-4.37,1.22-6.59.55-5.82-1.76-5.84-10.03-.05-11.83,2.21-.68,4.57-.46,6.63.55Z"/>
  <path d="M77.05,10.11c-1.73-.99-3.82-1.49-5.76-.78-3.23,1.18-3.28,5.65-.09,6.94,1.89.77,4.13.21,5.85-.73v2.57c-3.2,1.71-7.99,1.29-10.02-2-1.07-1.73-1.21-3.96-.41-5.83,1.71-3.97,6.91-4.63,10.42-2.8v2.62Z"/>
  <path d="M57.48,17.85v4.66h-2.36v-11.87h2.36v.96c1.68-1.96,4.9-1.89,6.38.27.98,1.43,1.07,3.39.37,4.97-1.16,2.58-4.87,3.07-6.75,1.01ZM59.59,12.14c-3.12.3-2.89,5.3.47,4.98s2.59-5.28-.47-4.98Z"/>
  <path d="M51.04,11.55v-.91h2.31v8.27h-2.36v-1.11l-.36.38c-3.9,2.83-8.24-1.12-6.47-5.46,1.15-2.82,4.88-3.42,6.88-1.17ZM48.24,12.19c-2.02.27-2.69,3.15-1.14,4.39,1.32,1.06,3.49.52,3.92-1.18.47-1.86-.83-3.47-2.78-3.21Z"/>
  <path d="M87.19,10.39v5.79c0,.38-.36,1.12-.58,1.43-1.34,1.86-5.46,1.89-7.11.44-.87-.77-.97-1.53-1.01-2.64-.06-1.66.05-3.36,0-5.03h2.36v4.93c0,.24.15.72.26.94.58,1.1,2.58,1.13,3.34.21.14-.17.39-.66.39-.86v-5.19c.04-.07.1-.07.17-.07.45-.05,1.37-.03,1.83,0,.12,0,.24.05.36.05Z"/>
  <path d="M91.18,8.71v1.61l.07.07h3.15v1.87h-3.22v3.44c0,.05.05.39.07.46.04.16.32.49.46.6.77.56,1.85.27,2.69.03v1.9c-2.06.84-5.31.38-5.58-2.31v-6.48s2.36-1.19,2.36-1.19Z"/>
</svg>