<?xml version="1.0" encoding="UTF-8"?>
<svg id="Layer_1" data-name="Layer 1" xmlns="http://www.w3.org/2000/svg" viewBox="0 0 99 28">
  <polygon points="16.83 8.94 16.83 13.5 22.35 13.5 22.35 8.94 23.46 8.94 23.46 19.15 22.35 19.15 22.35 14.59 16.83 14.59 16.83 19.15 15.5 19.15 15.5 8.94 16.83 8.94"/>
  <polygon points="74.26 8.72 74.26 9.81 69.18 9.81 69.18 13.28 74.26 13.28 74.26 14.37 69.18 14.37 69.18 17.85 74.26 17.85 74.26 18.93 67.86 18.93 67.86 8.72 74.26 8.72"/>
  <path d="M13.07,10.68c-9.79-3.97-9.73,10.68,0,6.73l.45,1.08c-2.84,1.45-7.2.89-8.65-2.24-2.43-5.22,3.81-9.22,8.43-6.77l-.22,1.19Z"/>
  <path d="M34.45,19.12c-.47-.86-1.16-2.46-1.46-2.98l-4.92.1-1.34,2.87-1.29.03,5.19-9.99,5.1,10.12c-.46-.08-1-.13-1.28-.16ZM32.51,15.24l-1.89-4.24c-.13.28-1.85,3.91-2.09,4.24h3.98Z"/>
  <polygon points="61.67 16.54 65.24 8.76 66.53 8.73 61.67 18.93 56.37 8.73 57.81 8.94 61.67 16.54"/>
  <polygon points="78.02 8.72 78.02 17.85 82.44 17.85 82.44 18.93 76.92 18.93 76.92 8.72 78.02 8.72"/>
  <polygon points="38.7 8.94 38.7 18.06 43.12 18.06 43.12 19.15 37.59 19.15 37.59 8.94 38.7 8.94"/>
  <path d="M49.96,19.22c-2.99,0-5.42-2.35-5.42-5.23s2.43-5.24,5.42-5.24,5.42,2.35,5.42,5.24-2.43,5.23-5.42,5.23ZM49.96,9.86c-2.38,0-4.31,1.85-4.31,4.13s1.94,4.13,4.31,4.13,4.31-1.85,4.31-4.13-1.94-4.13-4.31-4.13Z"/>
  <path d="M89.26,19.22c-2.99,0-5.42-2.35-5.42-5.23s2.43-5.24,5.42-5.24,5.42,2.35,5.42,5.24-2.43,5.23-5.42,5.23ZM89.26,9.86c-2.38,0-4.31,1.85-4.31,4.13s1.94,4.13,4.31,4.13,4.31-1.85,4.31-4.13-1.94-4.13-4.31-4.13Z"/>
</svg>