<?xml version="1.0" encoding="UTF-8"?>
<svg id="Layer_1" data-name="Layer 1" xmlns="http://www.w3.org/2000/svg" viewBox="0 0 99 28">
  <path d="M4.81,12.65,4.81,17.77l12.8-.02v2.89H4.81v-2.87M4.81,12.65l11.54-.05.04,2.71H4.81M4.81,7.34l12.56.16v2.95l-12.56-.03"/>
  <path d="M26.68,16.11l-3.48,4.35h-4.41l5.52-6.56-5.03-6.41,4.6-.08,2.86,3.77,3-3.72,4.25.02-5.27,6.2M29.4,14.48l5.05,5.98h-4.62l-2.54-3.37"/>
  <path d="M35.47,16.48h3.32c.22.83.62,1.4,1.22,1.73s1.42.49,2.45.49c.92,0,1.67-.15,2.25-.44.58-.29.87-.67.87-1.13,0-.24-.12-.46-.35-.65-.23-.19-.59-.36-1.06-.5l-5.13-1.57c-.99-.29-1.77-.69-2.37-1.19-.59-.5-.89-1.2-.89-2.09,0-1.22.57-2.19,1.7-2.93,1.13-.74,2.63-1.1,4.49-1.1,2.03,0,3.61.37,4.73,1.1,1.12.74,1.73,1.8,1.82,3.18l-3.37-.02c-.17-.72-.5-1.24-1-1.57-.5-.33-1.22-.49-2.16-.49-.83,0-1.52.15-2.05.44-.54.29-.81.66-.81,1.09,0,.21.1.4.29.57.19.18.48.33.87.45l5.29,1.57c1.05.34,1.88.74,2.5,1.19.62.46.93,1.17.93,2.14,0,.63-.18,1.22-.54,1.77-.36.55-.88,1.02-1.56,1.42-.57.34-1.21.58-1.92.72-.71.14-1.56.21-2.56.21-1.42,0-2.62-.16-3.62-.47-1-.32-1.79-.79-2.38-1.42-.03-.04-.06-.07-.09-.11-.03-.04-.06-.07-.09-.11-.25-.29-.43-.61-.54-.95-.12-.34-.2-.78-.24-1.33v-.02Z"/>
  <path d="M54.64,7.34v13.3h-3.46V7.34h3.46Z"/>
  <path d="M60.36,7.34l2.89,7.53c.11.29.2.58.29.86.08.28.17.56.27.84.05.13.09.27.14.41.05.14.09.28.14.43.09-.28.18-.56.28-.84.09-.28.18-.56.28-.84.05-.15.09-.29.14-.43.05-.14.09-.28.14-.41l2.98-7.55h3.58l-5.89,13.3h-3.26l-5.66-13.3h3.69Z"/>
  <path d="M76.71,7.34v13.3h-3.46V7.34h3.46Z"/>
  <path d="M84.36,7.34h3.9l5.93,13.3h-3.76l-1.15-2.79h-6.12l-1.15,2.79h-3.65l6-13.3ZM88.35,15.61l-2.1-5.22-2.12,5.22h4.23Z"/>
</svg>