<?xml version="1.0" encoding="UTF-8"?>
<svg id="Layer_1" data-name="Layer 1" xmlns="http://www.w3.org/2000/svg" viewBox="0 0 99 28">
  <path d="M53.61,13.01c.79-.06,2.05-.06,2.82.06.42.07.46.38.52.74.27,1.75.26,3.82.29,5.6.04,1.94.13,4.22-.18,6.13-.04.27-.08.48-.3.67-.52.44-2.52.59-3.23.61-1.9.06-3.89-.1-4.7-2.08s-.52-6.48.86-8.15c.76-.91,1.83-1.12,2.82-.41.33.23.87,1.02.83.07-.03-.77-.28-1.61-.39-2.38-.1-.7-.06-.8.66-.86ZM52.82,18.75c-.29.06-.38.66-.42.91-.13.95-.17,3.12.11,4.01.11.35.45.59.68.2.21-.37.27-1.53.28-1.98.02-.67.04-1.56-.04-2.22-.04-.33-.15-1.02-.62-.91Z"/>
  <path d="M42.29,14.4c.2.03.56.21.66.38.11.19.15.5-.12.55-.38.06-.8.02-1.18.04-1.64.06-3.66.13-5.27-.15-1.72-.3-2.78-1.71-2.65-3.45.09-1.23,1.2-2.69,2.37-3.07l-.78,1.17c-.71,1.25-.83,2.84.3,3.89.12.12.99.71,1.1.61,0-.17-.01-.35,0-.52.08-1.52.27-2.79,1.19-4.05.43-.59,1-1.08,1.42-1.66.47-.65.73-1.42,1.24-2.06.67-.82,1.58-1.09,2.21-1.99.52-.75,1.53-2.65,2.33-2.98.48-.2,1.55-.06,1.97.25.35.26.38.9.84,1.14.26.13,1.06.19,1.18.3s0,.97-.07,1.15c-.06.16-.2.29-.36.36-.23.1-1,.19-1.27.2-.22,0-.44-.06-.66-.04-.2-.64-.4-1.29-.66-1.91-.07-.16-.13-.39-.28-.49.16.64.41,1.26.56,1.9.11.48.3,1.3-.16,1.63-.51.36-1.1-.08-1.39-.51-.51-.73-.43-1.53-.55-2.36-.01-.07-.02-.21-.1-.24,0,1.03-.11,2.32.68,3.11.23.23.47.24.5.65.05.62-.24,1.5-.35,2.13-.25,1.48-.43,2.98-.52,4.48l.16,1.7c.37,0,.7.71.25.79-.25.05-.8.05-1-.13-.24-.23-.31-1.14-.34-1.49-.12-1.37-.14-2.86-.11-4.24,0-.07.03-.13.04-.2-.09-.03-.1.07-.1.13-.08.54-.08,1.09-.15,1.63-.33-.24-.63-.5-1.06-.54-1.07-.1-1.77.49-2.49,1.17.03.05.09,0,.13-.02.42-.27.72-.6,1.21-.8,1.45-.57,2.51.43,2.31,1.92-.06.44-.71,1.43-1.16,1.5-.24.03-.64-.04-.8.15.3.03.66-.04.95,0Z"/>
  <path d="M30.34,23.44c-.11.1-.82-.05-1.02-.06-1.3-.07-1.47.4-1.19,1.59.09.38.4,1.05.42,1.38.02.36-.47.39-.73.41-.93.06-2.27.06-3.2,0-.19-.01-.53-.03-.66-.17-.33-.35-.4-1.86-.44-2.36-.2-2.57-.17-5.37.18-7.93.07-.51.19-1.52.36-1.97.12-.31.44-.32.73-.35,1.35-.15,2.91-.12,4.27-.07.55.02,1.18,0,1.72.08.11.02.31.07.36.18.04.09.03.6.02.74-.05.76-.38,2.72-.73,3.36-.26.48-.63.13-1.01,0-.77-.27-1.78-.45-1.85.67-.06.99,1.05.52,1.57.42.29-.06,1.42-.19,1.59.05.06.09.05.8.04.97-.01.31-.05.66-.07.97s-.23,1.99-.37,2.13Z"/>
  <path d="M59.34,25.95c-1.98-1.91-1.99-6.91-.17-8.93,1.59-1.76,5.01-1.78,6.4.24s1.32,6.24-.17,8.18c-1.39,1.8-4.4,2.11-6.05.51ZM62.08,18.79c-.47.09-.57,1.07-.6,1.45-.06.62-.07,2.37.27,2.85s.8.23.97-.25c.25-.71.25-2.98-.06-3.67-.1-.23-.3-.43-.57-.38Z"/>
  <path d="M74.21,25.7c-1.47,1.64-4.44,1.75-5.96.12-1.78-1.9-1.81-6.43-.3-8.49,1.6-2.17,5.45-2.21,6.83.23,1.2,2.12,1.11,6.26-.57,8.14ZM71.13,18.79c-.34.07-.51.62-.56.92-.13.73-.16,2.62.15,3.28.23.47.72.48.96.02.32-.63.28-2.55.16-3.26-.06-.34-.25-1.04-.72-.95Z"/>
  <path d="M46.78,21.35c-.5.47-1.09.72-1.75.93-.33.11-1.36.3-1.54.55-.14.2-.04.42.17.51.71.31,2.32-.19,2.99-.55.2-.11.73-.55.9-.5.21.06.32.54.35.73.28,2.17-1.09,3.56-3.14,3.91-1.52.26-3.2-.21-4.1-1.52-1.42-2.09-1.16-6.42.55-8.31s6.1-2.05,6.55,1.03c.17,1.17-.12,2.41-.99,3.22ZM43.92,18.58c-.53.09-.88.9-.87,1.38s.52.18.76.05c.29-.15.73-.44.79-.79.08-.46-.23-.72-.68-.65Z"/>
  <path d="M32.88,16.96c1.82-1.81,6.16-1.84,6.45,1.34.16,1.79-.58,3.14-2.26,3.8-.4.16-1.81.46-2.01.68-.31.34.12.6.45.63.9.09,2.13-.3,2.9-.76.32-.19.67-.66.91-.11.12.27.16.87.16,1.18-.08,3.51-5.45,4.38-7.26,1.69-1.44-2.15-1.2-6.59.67-8.45ZM35.44,18.58c-.55.1-.95,1.01-.85,1.52.06.32.66-.03.81-.12.26-.15.65-.41.71-.72.1-.48-.2-.76-.68-.68Z"/>
  <path d="M51.22,4.98c.22.28.66.16.9.3.17.1.31.36.47.5.54.47,1.02.23.61,1.19-.37.86-1.09.4-1.74.88-.01.09.04.03.09.02.11-.03.29-.14.37-.01.05.08.09.59.12.74.1.48.27.98.34,1.46.18,1.24-.4,2.33-.31,3.65,0,.12.07.62.12.71.05.1.23.12.31.19.18.15.32.69.02.73-.21.03-.61.02-.79-.11-.25-.19-.33-.99-.37-1.32-.09-.8-.06-1.55.05-2.35-.08-.02-.07.08-.08.13-.14.58-.18,1.37-.15,1.97.02.43.16.89.18,1.29.02.42-.18.43-.56.45-.95.07-2.62.06-3.55-.12-2.9-.55-3.03-4.73-.69-6.16.2-.12.54-.31.74-.11.3.29-.16.44-.34.59-1.16,1-1.87,2.42-1,3.87.3.5,1.02,1.11,1.62,1.1.69-.01.37-.49.34-.95-.07-1.21.45-2.28,1.54-2.84l-.47.16c0-.52.1-1.1.3-1.59.21-.52.6-.93.73-1.5.22-.99.05-1.85.41-2.89.06-.18.36-.99.56-.99.12.03.15.3.16.42.01.16-.04.47.05.58Z"/>
</svg>