<?xml version="1.0" encoding="UTF-8"?>
<svg id="Layer_1" data-name="Layer 1" xmlns="http://www.w3.org/2000/svg" viewBox="0 0 99 28">
  <path d="M46.94,4.84l.22-.07c.03-.29.22-.42.5-.45-.16-.68.75-.69.62.04l.12-.1c.18.26-.29.4-.5.33-.16-.05-.14-.22-.42-.05-.19.11-.17.28-.16.48l-.21-.03v.27s.09,0,.14.02c.33.13.65.28.95.42.02,0,.21.02.26.04.05-.48.13.05.14.22.01.21-.07.82.16.9.03.01.11.02.14,0,.06-.04.04-.66.04-.77,0-.08-.1-.44.02-.46.16.03.11.19.12.31.15.02.36.14.5.14.13,0,.49-.17.64-.23.04-.01.09.02.1.01.02-.01.02-.13.13-.1.08.02.01.4.02.5,0,.16.03.52.25.43.18-.14.04-.84.11-1.07l.71-.33-.76-.34.03-.07c-.09-.04-.39-.03-.45-.07-.05-.03,0-.13-.14-.17-.23-.07-.32.21-.42.18s.02-.21-.03-.31-.34-.03-.35-.15c-.02-.11.27-.1.26-.24,0-.03-.18-.19-.22-.21-.25-.14-.28-.02-.5.04-.09.02-.23.06-.32.06-.46-.02-.55-.63-.04-.69.37-.04.9-.02.67.48.32-.09.69.21.48.55.09,0,.15.14.2.16.08.03.31-.08.47.05.04.04.05.12.11.13.07.02.18,0,.28.03.16.04.42.24.54.25.16.01.59-.16.83-.16.36,0,.65.4.97.49.16.04.33-.02.48.07.19.11.12.32.14.35.04.05.75.19.75.33v.53l.46-.24c.04-.29-.04-.58-.02-.88.03-.32.29-.23.37-.36.03-.06-.1-.26.12-.43.06-.04.17-.07.2-.11.07-.08.03-.21.22-.3.14-.07.78-.2.93-.2.44,0,.76.53,1.1.52.14,0,.22-.09.38.03.15.11.11.3.16.37.04.06.56.18.66.32.13.18-.04.6.03.83l.75,1c-.03.06-.08-.01-.1-.03-.24-.2-.42-.56-.65-.77.02.14-.03.27-.04.39-.02.34.06.87,0,1.17-.02.1-.11.14-.21.16.13.21.19.44.1.69.51.21.84.79.89,1.33.01.13-.03.43-.02.5.02.09.19.22.22.37.08.41-.11.66-.41.9l.77.3.99-.36,3.33,1.38c.12.12.06.61.07.79.03.65.08,1.31.11,1.96,0,.22,0,1.67.07,1.73.51.02,1.02.04,1.53.04.74,0,1.52-.1,2.27-.04.07,0,.3.03.32.09v8.17s-.1.05-.1.05h-6.88s-.1-.1-.1-.1v-.57c-.31.21-.66.33-1.03.34l-.04,1.71c-.07.03-.14.04-.21.04-.54.04-1.53.05-2.07,0-.09,0-.16-.01-.22-.09v-2.56c-.21.09-.38.21-.6.27-.86.24-1.77.05-2.42-.55v.38s.29.03.29.03c.04.02.05.08.05.13.02.16.03.78,0,.93,0,.04-.02.07-.05.09l-8.26.03c-.2,0-.15-.2-.15-.35h-3.01s-.06.02-.08.05c-.05.08-.11.35-.19.5-.16.27-.64.65-.96.65h-2.99c-.16-.23-.08-.64-.06-.91l-.04-.05h-5.99s-.08-.08-.09-.12c-.05-.25-.04-.7-.04-.96,0-.58.04-1.18.04-1.75,0-.09.04-.51-.07-.49l-.49.22-.71-.37v3.39s-.11.08-.15.09c-.58.08-1.47-.01-2.1,0-.17,0-.38.13-.48-.1v-9.07c0-.13.08-.18.21-.19.47-.06,1.58-.04,2.07,0,.07,0,.11,0,.17.04.18.1.6,1.75.76,2.03.2-.61.35-1.24.51-1.87.02-.08.08-.14.09-.22.06-.4-.1-1.15-.1-1.58,0-.15.12-.18.14-.28.02-.14-.09-.41-.03-.58,0-.07.11-.04.13-.02.03.04-.02.43.11.48v-.5s.1-.07.14-.05l.02.45.64-.43-.86-.41-.03-4.13c0-.1.09-.16.16-.22.83-.35,1.66-.74,2.5-1.08.25-.1.63-.3.89-.26l2.14.91c.48-.28.98-.5,1.5-.68l.02-.79.31-.21c-.05-.19,0-.41.2-.49.07-.03.19-.02.23-.05.05-.03.04-.16.18-.23.1-.05.37-.09.49-.1.35-.03.96-.05,1.29.01.13.03.58.3.63.29.1-.12,0-.23.16-.32.14-.09.23.02.36.02.1,0,.82-.42.94-.51.22-.17.25-.4.6-.34.17.03.33.16.51.16v-.83ZM48.61,3.48c-.28,0-.33.31-.08.38.16.04.68-.07.61-.3l-.05-.05c-.1-.03-.21.02-.31.01-.06,0-.1-.04-.16-.04ZM47.89,3.99c-.17.05-.1.4.08.46.07.02.19.05.19-.05,0-.09-.02-.37-.11-.41-.05-.01-.11-.01-.16,0ZM56.7,4.27c-.13.01-.73.13-.8.2-.09.07-.06.21-.12.26-.08.06-.56.14-.2.4.15.11.85.38,1.06.46.25.09.32.11.58.03.24-.07,1.09-.41,1.03-.71-.05-.25-.33-.1-.51-.15s-.44-.29-.62-.38c-.08-.04-.19-.01-.26-.12-.05-.02-.1,0-.15,0ZM51.79,6.32c.42.22.86.03,1.26-.16.16-.07.52-.25.53-.44.02-.33-.29-.19-.51-.25-.15-.04-.32-.19-.46-.27-.13-.07-.26-.08-.37-.22-.05-.01-.6.09-.66.12-.01,0-.04.04-.03.05.42.03.14.5.28.67.02.03.26.19.29.19.06,0,.47-.27.46-.12,0,.04-.36.25-.43.26-.18.02-.23-.08-.36-.17v.34ZM56.67,7.2c.06.4-.04.94,0,1.36.13-.04.26-.13.4-.14.11,0,.23.08.3.06.04-.01.14-.13.21-.17.09-.06.26-.08.29-.1.02-.01.09-.19.17-.26.16-.14.36-.16.55-.08.09.04.25.23.3.14l.05-2.44-.4.16-.08-.08.41-.24s-.4-.2-.45-.21c-.15-.03-.18.11-.3.19-.22.14-.85.41-1.09.42-.48.03-1.09-.37-1.53-.54-.05-.06-.31.09-.33.12-.02.03.02.08.02.12,0,.03-.06.02-.07.05-.06.23.07.59.04.83.04.06,1.19.45,1.38.6.07.05.11.13.13.22ZM47.25,6.08c-.02-.15-.06-.32-.07-.47,0-.1.09-.19-.07-.26l.03.72h.1ZM50.31,6.58c-.03-.17.02-.42,0-.6l-.62.24c-.05.42-.05.86-.11,1.28,0,.04-.02.15-.08.12-.07-.05-.05-.12-.05-.19,0-.26.06-.59.07-.86,0-.07.01-.28-.02-.33l-.43-.17c-.03.25.16.84-.17.95-.57.18-.43-.85-.49-1.15l-.24-.11v1.19s-.04.09-.05.09c-.03.01-.12-.08-.12-.09v-1.22l-.1-.03c0,.08-.02.2-.07.25-.03.03-.15.13-.21.17-.02.02-.08.01-.09.02-.03.03.02.19-.02.27-.03.07-.14.05-.18.13-.06.11-.02.27-.04.37,0,.04-.09.02-.11.11-.03.17.08.48.04.67.24.08.49.16.73.25.36.14.98.35,1.29.53.1.06.17.13.11.25l.37-.11c-.01-.17.06-.23.19-.31l1.64-.72.07-2.13-.68.28c-.04.25.09.92-.16,1.06-.19.11-.43-.02-.47-.23ZM47.52,5.73v-.17s-.2-.07-.2-.07l.03.31.17-.07ZM46.93,5.88c-.24-.07-.49-.28-.75-.18-.01.06.01.07.06.09.05.02.69.15.59.28-.09.12-.61-.21-.77-.17l-.89.51c-.02.08,0,.05.04.08.11.06.8.34.9.34.23,0,.5-.25.74-.28.01.08-.01.11-.07.15-.07.06-.53.26-.62.28-.28.05-1.44-.62-1.58-.5l-.03.18,1.44.66c.12.07.04.22.09.33.07-.08,0-.21.09-.29.09-.09.76-.26.79-.35l-.04-1.14ZM47.55,6.01c.03-.14-.06-.24-.15-.1-.08.13-.07.3-.05.44l.07-.29.14-.06ZM54.33,6.69c0-.15.04-.46-.05-.58-.07-.09-.43-.15-.55-.21-.53.39-1.27.81-1.94.58-.08.35.43.31.64.47l1.13-.47.05.09-1.03.48-.03.19.19.04c.09-.25.3-.3.55-.28.11.01.2.08.3.06.18-.03.52-.34.74-.38ZM41.8,6.84c-.14-.09-.45.22-.22.44.1.09.63.32.79.38.12.05.42.18.53.19.18.02,1.07-.34,1.27-.43.48-.23.49-.32.03-.6-.65-.39-1.01-.36-1.76-.3-.18.01-.54.04-.5.27.42.02.74.15.91.55.02.05,0,.1-.04.1-.1.02-.25-.31-.35-.37-.19-.13-.44-.08-.61-.15-.05-.02-.05-.08-.06-.09ZM56.43,7.11l-1.39-.58-.26.13.89.4.03.1-1.06.49c-.2.03-1.09-.46-1.41-.5-.12-.02-.17.03-.28.06l.05.17,1.69.68c.51-.35,1.18-.55,1.69-.88.03-.02.06,0,.04-.08ZM55.37,7.18c.01-.06-.02-.07-.06-.1-.18-.12-.52-.2-.72-.34l-.77.37c-.04.05.72.34.78.38l.77-.31ZM51.75,6.87v.62c.1-.03.57-.19.6-.24.03-.06.04-.15-.03-.18-.06-.03-.56-.22-.58-.2ZM41.19,7.59v2.41c.3,0,.5.15.69.36.04.05.1.18.14.21.06.04.17,0,.25.03.27.06.56.24.68.49.03.07.06.26.08.28.01.01.15.05.21.08.23.15.44.45.44.73v.79s-.08.09.03.12v-1.74c.04-.8-.06-1.65,0-2.45,0-.11.03-.22.07-.33l-.12.03-.05,2.6-.09.29c-.18-.15-.05-.44-.05-.63,0-.4,0-.8,0-1.2l-.3-.22v-.49c-.25-.06-.33-.18-.44-.39-.07-.01-.33.18-.36.05-.02-.09.25-.13.31-.15l-.17-.33c.04-.06.08-.06.15-.05.24.04.65.4.93.37.28-.12,2.17-.73,2.24-.86.03-.04.02-.09.02-.14-.06-.06-.83.35-.91.34-.03,0-.06-.06-.04-.1.05-.1.56-.24.69-.31.04-.02.06.02.05-.07l-.96-.38c.18.42-.43.62-.72.74-.27.11-.54.2-.83.26l.1.1s-.07.03-.11.02c-.1,0-.52-.17-.64-.21-.34-.13-.7-.32-1.02-.49-.04,0-.25.03-.18.1l.93.43-.05.09-.94-.41ZM47.01,7.22c-.18.08-.47.15-.63.25-.07.04-.07.05-.06.13.23-.13.45-.06.69,0v-.38ZM55.64,8.58c.03.19-.02.47,0,.67.25-.24.46-.44.83-.46.04-.03.03-.07.03-.1.05-.4-.03-.92-.04-1.33l-1.51.76c-.01.09,0,.05.05.07.18.08.6.16.64.39ZM51.17,18.85v-.5s.11-.12.12-.12h.81c.07-.45-.05-.94,0-1.39.02-.21.14-.21.33-.22.64-.05,1.35.04,2,0,.08-.02.22.09.22.16v1.46h.67s.12.08.12.09v.57l.63-.42c.76-.32,1.71-.3,2.38.21.06-.28.24-.16.41-.21.09-.03.14-.22.18,0h.33s-.17-2.41-.17-2.41l-.16.13c-.31-.08.16-.31.09-.38-.12-.01-.2-.09-.32-.04l-.04-.05c.06-.31-.22-.17-.3-.19-.04-.01-.07-.1-.13-.14-.11-.07-.19-.02-.27-.04-.13-.04-.13-.16-.34-.11-.19.05-.31.28-.58.16.08-.27-.27-.14-.42-.18-.07-.02-.18-.17-.29-.19-.05-.01-.56.03-.46-.11l.34-.05c-.1-.11-.1-.21-.28-.17l-.03-.09-.17.26c-.1.07-.11-.32.1-.41.17-.08.17.05.19.05.07.01,1.26-.47,1.41-.55.04-.02.06.02.05-.07l-1.63-.55c-.11-.41.06-.19.22-.12.1.04.93.36.96.33-.03-.17,0-.75-.14-.84-.06-.04-.35-.07-.47-.11-.25-.09-.49-.26-.58-.52-.04-.11-.04-.33-.07-.38-.02-.03-.18-.12-.22-.17v1.31s.19.04.23.17c.07.24-.25-.02-.29-.02-.18-.05-.35.21-.53.28-.1.04-.18,0-.28.09-.07.06-.09.21-.15.24-.16.06-.33-.14-.47.12-.04.08-.06.39-.18.26-.09-.1.04-.39.12-.46.16-.15.39-.05.47-.1.02-.01.07-.17.15-.22.08-.06.2-.05.31-.1.14-.06.27-.21.39-.29l.05-1.86c-.27.09-.7.47-.95.21-.17-.19-.02-.31-.02-.5,0-.37-.28-.95-.53-1.22-.17-.18-.54-.3-.36-.57.2-.29.53-.05.77.09.42.25.77.59,1.09.96v-1.2c-.17-.04-.77.39-.84.38-.13-.02.11-.22.14-.24.16-.12.37-.17.52-.27.03-.02.06,0,.04-.08l-2.8-1.07c-.69.24-1.37.52-2.04.82-.11.05-.69.25-.53.4l2.61.97.83-.23c.02.09-.02.06-.07.08-.15.07-.23.14-.35.21s-.25.1-.38.12c.06.07.06.1.07.19.02.2,0,.48,0,.69-.01.68-.06,1.38-.07,2.06,0,.48,0,.96,0,1.44l.21.11,1.02-.43c.08,0,.1.09.09.15-.02.07-1.18.47-1.33.57-.05.03-.08-.07-.08-.09,0-.06.13-.06.13-.12-.08-.02-.19.04-.25.03-.08-.02-.18-.23-.31-.2l-.38.41.14,1.62c-.06.18-.66.31-.81.46.1.12.08.34.1.5.13-.01.27-.12.4-.04.07.05.3.38.13.45l-.07-.07c-.08.07-.15.15-.26.1v.16s-.27.02-.27.02c.01.17-.12.33-.27.36s-.61.03-.78.01c-.57-.06-.94-.56-.29-.88-.06-.07-.15-.08-.21-.14s-.06-.14-.12-.19c-.02-.02-.39-.24-.41-.25-.05,0-.1.03-.15.04l.07.21-1.67-.72s-.05-.05-.05-.09c0-.11.07-.52.1-.66,0-.05,0-.06-.05-.04-.03,0-.29.14-.29.16,0,.25,0,.5,0,.75,0,.22.12.37-.22.43l-.13-.27c-.09-.03-.19.01-.28-.01-.06-.02-.1-.11-.15-.13-.11-.03-.23.15-.34.17-.13.02-.23-.11-.39-.05-.21.07-.05.28-.07.38s-.13.02-.19.02c-.23.01-.17.25-.19.27-.02.01-.13,0-.19.03-.44.17-.85.44-1.28.63,0,.05.05.05.08.07.18.08.72.28.9.3.4.05.89-.04,1.3.01.14.04.12.22.13.23.02.02.44,0,.53,0,.45.04.85.27,1.14.61h.05c.1-.26.36-.45.6-.59s.48-.11.37-.48l-.11.2h-.1c-.05-.21.16-.51.38-.36.05.03.06.1.08.11.08.05.29.03.2.25.78-.05,1.55.07,2.13.62ZM43.91,8.8v4.4l2.48,1.03.07-4.42-.36-.19c0-.23.31.01.46.03.03,0,.05,0,.08,0,.77-.34,1.69-.54,2.44-.9.03-.01.12-.06.1-.09l-2.47-.96c-.24-.03-.61.13-.84.21-.61.21-1.21.49-1.81.71-.03.03.43.24.49.23.07-.01.18-.1.27-.1-.02-.07-.15-.03-.19-.1-.02-.03-.02-.07-.02-.1.6-.13,1.18-.44,1.76-.59.08-.02.16-.06.24-.05.06,0,.45.14.47.17.15.23-.43-.03-.49-.03-.46.17-.92.4-1.4.51-.02.09.02.05.07.09-.05.05-.13.03-.1.12.15.07,1.08.32,1.1.4.05.18-.65.33-.69.55-.01.07.03.3-.05.32l-.81-.18c-.11-.1-.2-.69-.31-.83-.04-.05-.45-.25-.48-.22ZM58.82,8.86c-.05-.12.04-.2.03-.36-.01-.34-.46-.72-.73-.41-.07.08-.06.21-.1.24-.1.08-.43.02-.5.29-.02.06.05.18-.03.21-.13.04-.1-.14-.19-.19-.16-.09-.42,0-.55.1-.07.06-.11.2-.16.22-.16.05-.29-.02-.51.11-.36.23-.46.6-.4,1.01.02.16.22.22.21.44,0,.31-.43.47-.12.85.08.09.29.2.31.24.1.17-.1.4.26.67.43.32,1,.21,1.42-.08.47.34.9.27,1.19-.23.05-.08.03-.18.11-.24.22.02.37.05.57-.08.29-.2.39-.55.19-.86l-.16.17c-.14.06,0-.3,0-.34.1-.67-.13-1.56-.84-1.77ZM40.37,9.49l-3.08-1.34-3.18,1.31.04.08,3,1.3h.26s-.17.19-.17.19l.07,1.52c0,.05-.03.13-.09.12-.11-.02-.11-1-.12-1.15,0-.1-.04-.48-.07-.52l-3.03-1.29.04,3.88,2.89,1.26.41.09c-.01-.47-.07-.94-.09-1.4,0-.06-.03-.1.04-.14.11-.02.09.27.12.33l.07,1.15,2.17-.96-.12-.2-.63.29-.07-.07.62-.29s-.16-.35-.2-.44c-.14-.36-.21-.83-.02-1.18.04-.08.17-.19.18-.23.07-.24-.02-.37.2-.63s.5-.23.63-.33c.04-.03.04-.14.07-.2.04-.07.14-.2.15-.26.06-.21-.06-.47-.02-.69-.01-.02-.45.23-.45.09,0-.07.27-.14.33-.18.03-.02.06,0,.04-.08ZM41.02,8.39l-1.27.55c-.01.06.02.07.06.09.15.1.83.29.83.51v.64l.38-.19v-1.6ZM43.46,8.8c-.18.11-.32-.03-.43-.17-.07-.09-.05-.25-.22-.24,0,.39.39.42.64.62l.02-.21ZM51.48,10.47c.03.09,0,.46,0,.58,0,.01-.04.05-.03.09-.13.1-.13-.39-.14-.43,0-.05.02-.06-.05-.05l-1.31.55c-.05.51-.04,1.02-.09,1.53-.02.19-.15.49-.17.14s.06-.87.07-1.24c0-.15,0-.31,0-.46l-.36-.11c-.19.08-.27.32-.5.26-.08-.02-.57-.23-.62-.27-.14-.12-.3-.53-.42-.7l-.89-.32-.07,4.25-.03.07-.14.02.17.19.04.84.36-.17c.07-.05.12-1.19.28-1.41.05-.08.6-.4.72-.45.16-.08.21-.12.4-.08.23.05.61.34.81.36.29.03.76-.21,1.02-.19.09,0,.84.27.94.33.25.14.13.58.23.63.23-.25.38-.57.7-.21l.07-4.06-.88.37-.08-.08s.03-.06.06-.08c.19-.14.68-.24.84-.37.06-.04.02-.03,0-.07-.1-.16-.69-.38-.89-.46-.58-.23-1.19-.42-1.78-.65-.88.25-1.8.59-2.62,1.01-.04.02-.06-.02-.05.07l.77.28,1-.38.07.03.03.14c.2-.15.46-.25.71-.31.11.11-.51.39-.58.41,0,.06.07.03.1.02.09-.02.19-.11.27,0l-.38.24c0,.07.61.24.71.33.03.03.08.06.03.1l-.26.15.3.12,1.52-.61s.1.01.11.05ZM53.99,8.87c-.2-.14-.38.21-.17.16.04-.01.21-.1.17-.16ZM45.01,8.87s-.4.11-.41.16l.17.6c.09,0,.05,0,.07-.05.07-.23.08-.48.17-.71ZM54.3,9.14c.01-.06-.06-.14-.12-.14l-.26.1.12.13.26-.09ZM43.46,9.08l-.17-.04v.36s.15.09.15.09l.02-.41ZM45.39,9.83v-.79c-.17.21-.28.48-.41.72l.41.07ZM45.94,9.21l-.38-.1v.31s.36-.14.38-.21ZM54.61,9.28l-.18-.1-.3.18.11.08.37-.16ZM54.3,9.56l.08.13.47-.18c-.13-.19-.37.04-.55.05ZM55.06,9.76c0-.23-.38-.07-.51-.01-.17.07-.13.16.03.13s.32-.13.48-.12ZM47.04,9.66l-.38.16-.09,4.47.11.08c.04-.31,0-.63.02-.95.03-1.09-.05-2.38.07-3.44.03-.22.15-.19.28-.33ZM54.58,10.18l.69-.22-.11-.12-.61.17.03.17ZM48.38,10.11l.22.45c.18-.16.23-.26.1-.48l-.03-.03c-.08.08-.19.07-.29.07ZM55.33,10.11c-.08,0-.6.14-.65.18l-.02.23c.04.05.04.02.08,0,.1-.02.68-.23.73-.27.11-.08-.05-.15-.14-.15ZM42.98,11.55c0,.1,0,.18-.09.24-.14-.09-.05-.17-.05-.29,0-.41-.29-.69-.68-.77-.09-.02-.22.01-.28-.02-.05-.03-.14-.29-.32-.4-.54-.34-1.07.08-1.16.64-.34.02-.78.3-.82.66,0,.08.04.16.02.22s-.11.08-.15.13c-.48.6.19,1.97.92,2.13l2.51-1.1c.2-.09.37-.09.57,0,.06-.48.1-1.29-.48-1.45ZM48.42,10.9c.02-.09.08-.12.06-.21,0-.02-.19-.42-.21-.45-.07-.11-.19,0-.27.06.13.17.21.38.34.56.02.03,0,.06.08.04ZM55.63,10.68c.07-.07.09-.31-.07-.3-.24.03-.62.26-.88.31-.08.14-.14.4.1.36.06,0,.81-.35.84-.38ZM49.07,10.52l-.12-.11-.38.59.23.09.27-.57ZM48.97,11.17l.55-.43s-.27-.13-.31-.11c-.09.17-.21.35-.24.54ZM60.15,12.24c-.35-.09-.65-.37-1.03-.31-.14.49-.57.72-1.07.65l-.14.75.18-.18c.63-.32,1.38-.54,2.01-.85.04-.02.06.02.05-.07ZM64.45,13.24l-3.05-1.24c-.98.4-2.08.76-3.02,1.24-.05.02-.11.04-.12.1l3.11,1.17,3-1.2.08-.07ZM46.66,14.58l-3.49-1.48c-1.13.42-2.2.98-3.32,1.44,0,.05.05.05.08.07.21.11.49.22.72.31.84.37,1.69.74,2.55,1.06.99-.31,1.96-.84,2.93-1.16.11-.04.36-.16.25.08l-3.03,1.24-.04.14c.07.48.05.96.06,1.43.24-.11.46-.26.69-.37.17-.08.64-.22.75-.31.05-.04.03-.1.08-.14.05-.05.24-.09.25-.11.04-.05-.06-.31.21-.39.2-.06.35.06.43.05.08-.02.2-.22.38-.19.11.01.2.14.26.16.07.02.13-.05.25.03.09.06.07.15.14.19l-.07-1.82s-.15.06-.17-.02c-.03-.14.13-.08.1-.19ZM64.62,13.41l-3.13,1.26c-.06.05-.04.23-.03.31.02.29.1.65.1.93,0,.17-.15.14-.17,0-.05-.29-.03-.69-.07-1,0-.06-.03-.2-.07-.24l-3.13-1.19-.03,1.72c.14-.01.26.02.38.1,0-.26.12-.02.15,0,.03.02.09,0,.12.02.03.02.17.25.22.28.09.06.33.06.39.19l.16,2.17c.06-.01.06-.1.1-.15.1-.12.17-.18.33-.19.06,0,.14.03.17.02.08-.01.12-.2.41-.16.19.03.21.2.27.23.03.02.25.05.35.08.31.13.32.37.58.54l-.07-.98.05-.09.09.07c.24-1.89,2.85-1.84,2.99.13,0,.09-.08.21.04.25l-.17-4.3ZM51.26,13.9s-.72-.28-.77-.28c-.27,0-.74.22-1.02.19-.23-.02-.69-.38-.9-.37-.09,0-.63.33-.73.41-.03.02-.06,0-.04.08l1.61.6,1.72-.55.11.1-1.72.61c0,.2.07.44.03.63-.03.18-.14.06-.16-.08-.03-.18.03-.38-.05-.55l-1.68-.63-.27,2.09,1.26.55c.1.01.2-.15.37-.13.13.01.31.25.47.28.16-.29.32-.58.68-.65.2-.04.19.05.31.09.18.05.32-.04.37.25l.8-.35-.1-1.37s-.3.19-.38.05l.35-.21-.07-.63c-.16.07-.12-.07-.18-.13ZM57.91,15.06v-1.07l-1.58.67c.14.14.18.29.39.37.22.08.45-.05.63.22.19-.08.34-.23.57-.2ZM34.69,14.49v.58l.38.14c.07.21.02.53.24.67.08-.06-.03-.99,0-1.19,0-.05.03-.1.09-.09.19.11,0,.56.12.67s.82.15,1,.27h.18c.02.13-.06.87.09.91.04.01.07,0,.1-.03.1-.12,0-.58-.01-.74.07-.22.15-.06.26-.02.17.05.85.13.94.2.11.08-.11.84.29.81.06,0,.19-.09.19-.12v-.57c.34-.04.69.12,1.03.14v-1.57l.55-.34-.35-.18-2.19,1.01c-.38.13-.44.07-.79-.07-.62-.24-1.22-.56-1.84-.81l-1.05.74.65.15c.05-.21-.12-.46.05-.62l.09.05ZM41.55,18.23c.54-.05,1.15.04,1.7,0-.04-.24.07-.51.04-.74-.03-.21-.05-.36-.07-.58-.02-.24-.04-.49-.07-.73l-3.38-1.42c-.02.8-.03,1.6-.02,2.39,0,.08.04.16.04.24,0,.25-.05,1.26.02,1.39.05.1.24.18.27.31.32-.51.88-.81,1.48-.86ZM33.9,16.61h2.36s.12.08.12.09v2.12l.45-.29c.63-.32,1.75-.37,2.4-.11.13.05.25.14.38.19l-.04-2.3-.86-.18.1,1h-.1s-.05-.55-.05-.55c-.14.16-.04.29-.05.46,0,.03.02.12-.05.09-.09-.04-.1-.22-.09-.31-.54.15-.58-.43-.55-.82l-.86-.17c0,.09,0,.17,0,.26.04.53.14,1.06.17,1.58,0,.07.02.1-.07.09l-.1-1.24c-.07.04-.14.1-.14.19.01.15.13.86.04.93-.04.03-.06.02-.09-.02l-.1-.9c-.02-.08-.14-.1-.19-.19-.14-.24-.05-.58-.04-.84l-1.03-.17c.04.63-.4.74-.54.08-.02-.09.04-.28-.08-.25,0,.27,0,.58-.03.84,0,.05-.03.09-.08.08-.11,0-.17-.24-.19-.33-.03-.21-.03-.48-.04-.69l-.76-.17.1,1.55ZM34.76,16.06c-.03-.23.06-.45.04-.67,0-.06,0-.12-.09-.12l-.02.53.07.26ZM50.92,17.29s.06-.22.04-.28c-.02-.07-.16-.08-.18-.12-.02-.03.02-.08.02-.12-.02-.13-.15-.2-.2-.31-.22.08-.19.05-.33-.11-.38.07-.45.27-.63.57.06.35.23.21.43.18.15-.02.4.01.53.09.11.06.17.28.34.11ZM63.06,16.69c-.14.03-.36.19-.44.31-.52.77.37,1.69,1.09,1.16s.25-1.65-.65-1.47ZM50.62,17.5s0-.14-.1-.2c-.09-.05-.4-.09-.5-.07-.17.04-.15.18-.23.25-.12.1-.45.12-.11.39.28.22.44.14.75.14.1,0,.18.05.3.03.22-.05.25-.4.08-.51-.07-.04-.17-.02-.19-.04ZM51.48,17.5l-.12-.23c-.15.04-.31.04-.39.19l.15.24c.18,0,.2-.17.36-.2ZM31.82,17.37h-1.19v7.83l.05.05h1.17l.05-.05v-4.01l1.5.9,1.39-.72-.17.98v2.91h1.03l-.02-7.88h-1.41l-.6,2.32c.02.1.4.54.34.6l-1.07.02-1.08-2.94ZM53.92,17.37h-1.1v1.57l-.05.05h-.88v.93h1.17c-.04.28-.22.52-.24.81-.06.66-.05,1.88,0,2.55.01.16.05.36.11.51.27.67,1.18.78,1.78.52v-.84c-.21-.01-.54.12-.7-.07-.02-.02-.09-.18-.09-.19v-3.29h.79v-.93h-.74l-.05-.05v-1.57ZM59.53,18.47h1.39l.72.21-.02-.19c-.25-.17-.4-.54-.71-.6-.07-.01-.21,0-.24-.01-.03-.02-.08-.27-.26-.27-.12,0-.17.14-.25.16-.09.03-.16-.03-.23-.03-.19,0-.24.32-.43.31l.03.41ZM62.04,18.95c-.07-.29.23-.37-.04-.6l-.2-.44.08.87.16.16ZM43.88,18.19l-.45-.14v.17c.11,0,.22,0,.33,0,.04,0,.13.03.12-.03ZM68.46,18.4h-3.91v1.45l.42-.63c.56-.54,1.39-.63,2.15-.57.53.04.99.31,1.36.69,0-.17,0-.33,0-.5,0-.09.1-.39-.02-.43ZM43.57,18.95h-1.84c-.08,0-.33.07-.42.09-.37.11-.65.37-.72.76-.18,1.12.1,2.61-.01,3.77.09.62.57.94,1.18.92.15,0,.94-.18.98-.16l-.09.71-.14.24h-1.75l-.05.05v.88h2.18c.14,0,.4-.19.48-.31.09-.13.19-.45.19-.6v-6.35ZM45.36,18.95h-1.1v6.06h1.1v-4.9l.05-.05h.72s.16.09.19.12c.2.28-.03.74-.1,1.03v3.8h1.07v-4.87c0-.13-.13-.4-.21-.51-.41-.56-1.11-.46-1.71-.33v-.34ZM49.11,21.98h1.39c.12,0,.34-.14.41-.24.26-.35.24-1.34.13-1.75-.36-1.37-2.89-1.5-3.03.12-.07.76-.06,2.08,0,2.85.11,1.62,1.68,1.58,2.93,1.36v-.77s-.07-.05-.12-.05c-.25-.03-.7.08-.97.07-.16,0-.5-.06-.62-.17-.03-.03-.12-.17-.12-.19v-1.22ZM56.98,18.99c-.68.05-1.27.41-1.34,1.14-.09,1.01.07,2.14,0,3.17.17,1.49,2.78,1.49,2.92,0,.06-.65,0-1.35,0-1.99,0-.5.09-1.06-.1-1.52-.24-.58-.9-.83-1.49-.79ZM39.82,24.42v-4.01c0-.69-.54-1.32-1.23-1.39-.82-.09-1.85.03-2.04.98,0,.05.03.07.07.09.06.04.57.2.63.2h.04c.16-.36.85-.41,1.17-.32.36.09.5.61.44.94-.02.04-.06.06-.1.07-.24.04-.63-.01-.89,0-1.48.09-1.54.96-1.43,2.25.12,1.45,1.59,1.12,2.59.88l.11.31h.64ZM60.29,26.66v-1.67l.05-.05h.76s.22-.07.26-.09c.49-.2.69-.67.72-1.17.06-.88.07-2.33,0-3.2-.05-.66-.6-1.29-1.29-1.29h-1.6v7.47c.36.09.73-.04,1.1,0ZM63.87,25.24v-5.9c-.2-.13-.52-.02-.74-.01-.06,0-.36-.09-.36.01v5.88l.05.05h.93s.08-.05.12-.03ZM68.37,25.24v-4.49c0-.27-.23-.78-.43-.98-.66-.67-2.61-.61-2.73.55l.66.24c.19-.38,1.22-.41,1.47-.15.13.14.25.64.12.81h-1.17c-1.2,0-1.25,1.22-1.19,2.12.1,1.45,1.38,1.2,2.44,1.01l-.14.89c.33-.03.64.07.96,0ZM52.1,20.67h-.31v.77c0,.14-.15.54-.23.66-.39.6-1.08.63-1.73.63,0,.02.05.07.05.07h1.69s.08.11.09.15c.05.37.03,1.37,0,1.76,0,.1-.02.18-.11.24-1.17.24-2.49.39-3.51-.36v.79h7.02v-.38c-.96.26-2.11.23-2.68-.71-.09-.15-.28-.62-.28-.78v-2.84ZM54.92,20.67h-.28v2.03h.28v-2.03ZM64.55,20.88v.76l.19-.34.22-.28-.41-.14ZM64.55,24.18v1.14h2.13v-.14c-.67.1-1.42-.05-1.88-.58l-.26-.41ZM36.38,24.63v.57l.05.05h3.54l.05-.05-.05-.05h-1.34s-.09-.15-.14-.16c-.09-.02-.36.06-.48.06-.6.02-1.14-.04-1.64-.41Z"/>
  <path d="M36.1,5.01c.87-.21,1.8-.24,2.63.14.09-.02.35-.75.44-.87.08-.11.17-.06.17.06l-.24,1.51.41.38,1.31-.88-.72,1.29c0,.08.6.49.6.67-.06.14-.55,0-.69,0-.37-.01-.43.11-.73.23-1.14.44-3.08.26-4.22-.16-.24-.09-1.15-.46-1.15-.74,0-.2.65-.73.83-.86.15-.11.69-.4.76-.48.19-.23.4-.96.61-1.28.05-.08.14-.22.21-.09l-.2,1.08ZM35.52,5.74l.29-.1.15-.9-.45,1ZM38.44,5.87l.21-.53c-.65-.34-1.49-.35-2.2-.21-.09.02-.38.08-.41.14l-.04.36c.82-.16,1.65,0,2.44.24ZM38.85,6.15l.17-1.1-.44.92.03.06.24.12ZM39.75,6.6c-.26-.05-.46-.32-.67-.48-.11-.05-.02.27-.1.27-1.03-.76-2.6-.89-3.77-.39-.13.06-.24.15-.38.19.09-.12.23-.2.35-.29.04-.03.11-.04.13-.06,0-.01.09-.22.08-.23-.21.07-1.28.9-1.27,1.05.72.55,1.73.82,2.63.91s1.85.07,2.7-.29c.09-.04.17-.14.26-.15.17-.03.45.05.63.07-.13-.23-.48-.36-.58-.58.04,0,.08.03.12.03l.43-.68-.6.45s.04.18.05.21Z"/>
  <path d="M42.76.55c.22.09,1.48.54,1.54.68-.01.48.03,1.03-.08,1.5l-1.35.75c-.24.12-.4-.21-.6-.05l-.05-.15-.95-.5v-1.69s1.49-.54,1.49-.54ZM44.01,1.3s-.05-.05-.09-.07c-.36-.18-.8-.31-1.17-.48l-1.22.41,1.22.55c.18,0,.57-.26.72-.21.06.02.03.11.09.1v-.17s.45-.14.45-.14ZM41.43,1.33v1.32l1.24.64c.01-.35-.01-.7,0-1.05,0-.12.1-.27-.02-.36l-1.22-.55ZM44.12,2.61v-1.17l-.45.19-.09.4-.08.02-.05-.05-.02-.27-.53.17c-.04.25,0,.5-.01.74,0,.19-.06.38-.04.58,0,.05-.02.06.05.05l1.22-.65Z"/>
  <path d="M45.21,2.78s.08-.02.12,0c.16.15.87.37.96.52.07.11.05.96-.03,1.07-.04.05-.9.49-.98.49-.1,0-1.04-.45-1.07-.51v-1.03c.03-.05.08-.08.13-.11.09-.06.8-.42.88-.43ZM46.04,3.33l-.78-.38-.74.36.81.36.71-.34ZM44.36,3.47v.81l.83.4.02-.86c-.1-.06-.81-.38-.84-.34ZM46.15,3.47l-.79.36v.81c.28-.05.52-.27.79-.34v-.83Z"/>
  <path d="M64.68,7.22s.07,0,.1.02c.09.03.88.43.91.47.07.09.04.97-.04,1.07-.04.05-.92.49-.97.49l-.99-.49s-.03-.07-.03-.1c-.02-.17-.05-.6-.03-.76.01-.11.03-.18.12-.26l.94-.44ZM65.45,7.73l-.77-.34-.74.38.8.34s.61-.26.67-.29c.04-.02.06,0,.04-.08ZM63.8,7.9v.74l.83.43c0-.2,0-.4,0-.6,0-.09.07-.17,0-.24-.03-.03-.8-.36-.83-.33ZM65.59,7.9s-.79.3-.81.34l-.02.79.77-.38.05-.76Z"/>
  <path d="M32.34,7.15c.06-.01.09,0,.15,0,.07.02.75.36.8.4.2.16.03.75.04.99l-.9.47c-.09,0-.93-.38-.98-.45s-.05-.87-.02-.95c.16-.1.37-.23.54-.32.07-.03.3-.15.36-.16ZM33.11,7.63l-.71-.33c-.19.11-.44.19-.63.29-.04.02-.06,0-.04.08l.74.3c.19-.1.4-.16.59-.26.04-.02.06.02.05-.07ZM32.35,8.08l-.76-.31v.71c.23.16.5.26.76.36v-.76ZM33.21,7.8l-.67.27-.03.72.7-.31v-.69Z"/>
  <path d="M60.05,3.78c-.05.06.39.47.16.52l-.26-.4c-.08-.04-.18.06-.31.04-.06-.01-.81-.36-.84-.4-.08-.1-.08-.9,0-1,.04-.05.83-.45.89-.45l.88.46c.05.07.05.85,0,.94-.05.1-.41.24-.53.28ZM60.36,2.64s-.61-.37-.67-.38c-.08,0-.63.29-.63.33l.67.32.64-.27ZM59.63,3.74v-.71c-.22-.13-.47-.25-.72-.33v.71l.72.33ZM60.46,2.74c-.23.03-.49.17-.69.29v.71l.67-.34s.02-.07.02-.09v-.57Z"/>
  <path d="M63.51,11.06l-.8.38c-.06,0-.82-.36-.86-.41-.12-.13,0-.71-.07-.93l-.6-.91.1-.04.64.91.76-.38c.06,0,.81.36.86.41.12.11.03.78-.03.96ZM63.35,10.14l-.67-.31-.6.34.64.3c.05,0,.53-.21.59-.25.03-.02.06,0,.04-.08ZM62.66,11.24v-.67l-.65-.31-.07.04v.64l.72.31ZM62.8,11.24c.2-.12.44-.19.62-.33v-.64l-.62.29v.67Z"/>
  <path d="M60.51,4.67c.13-.03.32.49.39.53.1.06.28-.03.45.14.43.41-.19,1.06-.64.67-.26-.22-.15-.55.05-.77,0-.06-.25-.37-.29-.47-.02-.05,0-.09.04-.1ZM60.97,5.4c-.31.05-.23.58.09.54.37-.05.26-.6-.09-.54Z"/>
  <path d="M60.29,7.73l.71,1c0,.16-.06.11-.13.03-.25-.3-.45-.71-.7-1.02-.04-.05-.14-.08-.19-.16-.26-.39.22-.78.56-.53.28.21.1.7-.25.68ZM60.24,7.15c-.25.05-.18.45.09.4s.19-.46-.09-.4Z"/>
  <path d="M31.83,13.73c.57-.06.69.8.13.89-.63.09-.69-.82-.13-.89ZM31.82,13.93c-.31.06-.23.55.12.47.28-.06.2-.54-.12-.47Z"/>
  <path d="M66.06,14.42c.59-.03.65.85.06.89s-.62-.86-.06-.89ZM65.9,14.69c-.17.18.05.53.32.37.32-.19-.07-.64-.32-.37Z"/>
  <path d="M36.64,1.27c.57-.15.7.64.22.74-.54.11-.63-.63-.22-.74ZM36.62,1.51c-.19.19.2.46.32.2.09-.19-.2-.32-.32-.2Z"/>
  <path d="M54.12,2.37c.46-.1.57.52.22.63-.5.15-.6-.54-.22-.63ZM54.15,2.58c-.22.07.03.42.19.18.08-.11-.05-.22-.19-.18Z"/>
  <path d="M67.99,8.53c.43-.08.54.59.09.65s-.48-.57-.09-.65ZM67.98,8.73c-.17.06-.02.34.15.22.1-.07,0-.27-.15-.22Z"/>
  <path d="M34.85,3.94c-.31.26-.71-.21-.42-.47.32-.29.7.23.42.47ZM34.72,3.81c.08-.05.02-.3-.13-.22-.18.09.03.29.13.22Z"/>
  <path d="M46.1,1.55c.39-.09.47.47.11.53s-.43-.46-.11-.53Z"/>
  <path d="M49.14,5.19c.04.15-.19.16-.29.17-.17.01-.64-.05-.79-.14-.07-.04-.04-.1-.07-.13-.03-.03-.12.03-.09-.08.41.14.8.27,1.24.17Z"/>
  <path d="M32.24,10.8c.24-.04.28.34.06.37-.24.04-.3-.34-.06-.37Z"/>
  <path d="M39.26,2.47c.24-.04.29.35.06.37s-.3-.34-.06-.37Z"/>
  <path d="M65.75,11.56c.17.17-.12.47-.27.25s.14-.39.27-.25Z"/>
  <path d="M51.02,2.06c.31-.09.35.35.06.34-.21-.01-.21-.29-.06-.34Z"/>
  <path d="M56.89,2.6c-.11-.11-.05-.32.15-.3.34.02.06.51-.15.3Z"/>
  <path d="M47.59,5.19l-.1-.08c.02-.09.05-.17.12-.23.11.08-.01.21-.02.31Z"/>
  <path d="M60.29,4.36c.14-.01.27.15.12.24-.08-.07-.14-.13-.12-.24Z"/>
  <path d="M55.4,15.85l.07.14c-.18-.05-.71.02-.76-.22-.05-.27.1-.51.39-.46.06,0,.12.06.17.06.14,0,.31-.21.46.02.21.32-.04.47-.34.46ZM55.61,15.44s-.26.09-.33.09c-.11,0-.33-.24-.41.04-.1.35.79.18.81.08l-.07-.22Z"/>
  <path d="M47.75,17.82c.13.11.2.44,0,.54.06,0,.12.03.1.1-.09-.03-.35.15-.4.07-.07-.12.17-.12.21-.17.02-.03,0-.09.02-.11.02-.03.06-.03.07-.05.02-.08-.08-.29-.16-.32-.12-.03-.25.13-.29.1.05-.12-.02-.16-.13-.2-.14-.01-.27.26-.29.38.01.03.34.22.4.26.04.03.09.04.08.11-.17.04-.24-.08-.35-.14-.23-.13-.32-.06-.19-.38.07-.18.16-.36.39-.33.09.01.13.08.18.1.09.02.22-.06.34.05Z"/>
  <path d="M58.8,16.2c.12-.03.13.08.06.16-.3.36-.85.71-1.18,1.05-.08.12-.19,0-.1-.1l1.23-1.11Z"/>
  <path d="M55.85,16.85c-.07.12-.2.06-.23.07-.04.02-.06.19-.23.07-.15-.14.04-.46.21-.45.02,0,.35.2.36.22.13.17-.19.36-.11.09Z"/>
  <path d="M57.56,16.55l.03.17c-.4.22-.2-.01-.23-.04-.01,0-.1.03-.12-.07h-.05c0,.12-.09.07-.1.08-.05.04,0,.25-.21.08l.26-.29.42.07Z"/>
  <path d="M52.4,14.58c.09-.02.13.01.18.08l-.33.15-.05-.08c.05-.05.12-.14.2-.15Z"/>
  <path d="M34.83,9.42c.13-.02.23.05.34.09.49.18,1.06.44,1.54.66.06.03.35.15.35.2,0,.06-.1.05-.14.04-.2-.04-.61-.23-.82-.31-.42-.17-.83-.37-1.24-.55l-.03-.12Z"/>
  <path d="M39.37,9.97c.07.09-.38.25-.45.24.2.11.26.39.48.45.02.08.03.14-.06.15-.19.02-.33-.5-.7-.46-.06,0-.27.13-.3.1l.14-.17c-.1,0-.2,0-.27-.09.15-.2.34,0,.53-.02.11-.01.56-.31.64-.21Z"/>
  <path d="M35.31,9.35l.02-.11c.41-.16.81-.37,1.22-.53.05-.02.55-.26.55-.1-.03.04-.07.07-.11.09-.26.15-1.22.55-1.5.63-.06.02-.11.02-.17.02Z"/>
  <path d="M34.79,12.55c-.02-.21.4,0,.38.09-.03.14-.3-.1-.38-.09Z"/>
  <path d="M35.17,13.59s.03.16-.04.13c-.04-.06-.32-.12-.29-.19.04-.1.33.04.34.06Z"/>
  <path d="M37.44,8.56c.02.3-.43-.02-.18-.07.05,0,.12.06.18.07Z"/>
  <path d="M48.83,9.35l.88-.34c.13.02.23.1.06.16-.12.05-.79.3-.87.31-.03,0-.04,0-.06-.03l-.02-.1Z"/>
  <path d="M63.93,15.78c-.02-.11.29-.22.31-.12s-.25.13-.31.12Z"/>
  <path d="M42.74,19.91s-.23.89-.24,1.05c-.06.69.05,1.47,0,2.17-.03.09.37.36.12.36h-.69c-.26,0-.18-.71-.19-.88-.03-.71-.11-1.67-.04-2.37,0-.08.07-.33.15-.33h.88Z"/>
  <path d="M52.95,7.75s.01.04.02.05c.03.01.21-.05.2.11-.05.07-.43-.15-.56-.13l-1.64.68.07.09-.1.02c0,.05.05.05.09.07.48.25,1.11.41,1.57.67.05.03.11.05.1.12-.09.01-.17-.01-.25-.04-.62-.2-1.25-.55-1.88-.73l-.14-.1s.07-.07.11-.09c.56-.32,1.39-.5,1.98-.81.16-.04.3.05.45.11Z"/>
  <path d="M53.54,8.04c-.1.04-.25,0-.27-.12.02-.1.33.05.27.12Z"/>
  <path d="M60.34,20.15h.62c.25,0,.28.41.25.59-.02.16-.15.31-.16.45-.09.72.08,1.61,0,2.34-.05.38-.31.59-.7.53l-.06-.05v-3.82l.05-.05Z"/>
  <path d="M44.63,15.13s.02.12-.04.11l-1.42.51c-.85-.42-1.82-.71-2.66-1.12-.22-.11-.08-.17.12-.12.27.07.66.26.93.37.55.23,1.09.51,1.65.73.19.02,1.37-.54,1.42-.48Z"/>
  <path d="M43.12,13.41s.01.08-.02.11c-.11.09-.51.22-.67.24-.01-.08.05-.09.1-.12.08-.05.54-.27.59-.22Z"/>
  <path d="M42.26,14.1c-.17.03-.33.14-.49.18-.05.01-.05.04-.09-.03-.01-.08,0-.06.04-.09.04-.02.44-.19.46-.19.08,0,.09.08.08.13Z"/>
  <path d="M43.91,13.79s-.45-.13-.49-.17c-.04-.03-.02-.07-.02-.11.09-.04.63.16.52.27Z"/>
  <path d="M43.14,13.58l.05.08c-.41.31-.61.07-.05-.08Z"/>
  <path d="M44.05,11.77s.06-.05.09-.05c.17-.03.89.33,1.1.38.02.03.01.06.02.09.02.16-.01.62-.04.79,0,.05-.04.14-.09.15-.09.02-.94-.38-1.08-.46v-.89ZM44.49,11.97l-.3-.11v.38s.21.05.21.05c0,.15-.19.04-.21.05-.02.24,0,.31.23.38.06.02.04,0,.05-.05.03-.21,0-.48.03-.7ZM45.15,12.21l-.55-.17-.05.72.54.21c0-.25.02-.52.07-.76Z"/>
  <path d="M45.33,12.75s-.04-.15.04-.13c.07.01.4.17.4.22,0,.12-.43-.07-.44-.09Z"/>
  <path d="M67.51,22.08c-.03.35-.04.74-.24,1.04l.24.28c0,.05-.24.07-.3.08-.22.03-.72.08-.9-.02-.2-.12-.18-.9-.14-1.12.02-.09.13-.27.22-.27h1.12Z"/>
  <path d="M38.99,21.84l-.17,1.08.17.24c-.02.07-.63.15-.74.16-.24.01-.6.04-.68-.25-.05-.17-.05-.94.05-1.08.02-.03.16-.15.19-.15h1.19Z"/>
  <path d="M57.08,19.92c.52-.09.72.29.58.75-.04.12-.14.22-.16.36-.08.64.1,1.51,0,2.13-.04.27-.35.29-.56.26-.19-.03-.21-.23-.23-.39-.06-.65-.07-2.08,0-2.72.03-.24.12-.35.37-.39Z"/>
  <path d="M49.11,21.12v-.98c0-.09.23-.24.33-.26.72-.11.84.29.57.88,0,.12.22.12.21.27,0,.03-.03.09-.05.09h-1.05Z"/>
  <path d="M49.48,16.57l-.07-.84.09-.12s.07.06.09.12c.02.09.05.63.04.72,0,.04,0,.08-.03.1l-.1.02Z"/>
  <polygon points="49.55 7.87 49.52 8.37 49.42 8.39 49.45 7.89 49.55 7.87"/>
  <path d="M59,13.27c.44.14.87.29,1.31.45.26.1.86.4,1.08.43.12.02.45-.17.6-.2.03,0,.13-.04.13.03,0,.04-.66.3-.76.29l-2.38-.92.04-.07Z"/>
  <path d="M61.28,12.51s-.41.16-.46.17c-.03,0-.1.06-.12-.02-.01-.07.5-.29.53-.29.04,0,.07.1.05.13Z"/>
  <path d="M62.9,13.62c-.05.17-.36.24-.52.24-.09-.07.45-.27.52-.24Z"/>
  <path d="M60.6,12.96l-.41.14c-.1-.1.43-.37.41-.14Z"/>
  <path d="M61.42,12.58c.11.11-.38.28-.38.15,0-.07.3-.18.38-.15Z"/>
  <path d="M61.87,12.52c-.02.19-.17.06-.28.03.02-.19.17-.06.28-.03Z"/>
  <path d="M58.36,5.7v.62h-.14s-.02-.41-.02-.41l-.93.41-.03,1.91c-.04.09-.1.12-.16.03v-1.93l-1.86-.79.05-.08,1.89.72c.4-.12.78-.42,1.19-.48Z"/>
  <path d="M35.14,14.91s-.08.06-.12.05c-.13-.04.03-.57-.02-.69.04-.01.14.01.14.05v.58Z"/>
  <path d="M38.41,16.47s-.13.05-.13-.02l-.04-.48.05-.09s.12.02.12.05v.53Z"/>
  <path d="M56.88,5.22l-.06.13c-.07.02-.14,0-.2-.03-.12-.04-.59-.35-.7-.43-.09-.07-.11-.15.02-.13.31.06.58.5.94.46Z"/>
  <path d="M34.69,6.29l-.14.21h.17c.04.12-.31.17-.34.14-.03-.09.27-.39.31-.34Z"/>
  <path d="M35.07,6.32c.04.19-.17.28-.31.15.09-.11.14-.23.31-.15Z"/>
  <path d="M43.39,2.8s-.22.06-.23.04c-.03-.25.4-.18.23-.04Z"/>
  <path d="M42.71,1.05v-.1c.05-.06.75.22.75.29,0,.06-.1.05-.14.04-.18-.04-.43-.18-.61-.23Z"/>
  <path d="M65.16,8.5s.07-.01.09.03c.07.11-.23.2-.26.09-.01-.07.12-.11.16-.11Z"/>
  <path d="M32.69,8.49l.02-.11c.08,0,.19-.11.26-.01.02.09-.22.13-.27.12Z"/>
  <path d="M44.98,12.34v.1c-.09-.02-.16,0-.18.1-.01.07.05.15-.04.21-.1,0-.05-.59.22-.41Z"/>
</svg>