<?xml version="1.0" encoding="UTF-8"?>
<svg id="Layer_1" data-name="Layer 1" xmlns="http://www.w3.org/2000/svg" viewBox="0 0 99 28">
  <path d="M10.8,20.36l-3.69-10.61h-.07c.1,1.58.15,3.05.15,4.43v6.18h-1.89V7.65h2.93l3.53,10.1h.05l3.64-10.1h2.94v12.7h-2v-6.28c0-.63.02-1.45.05-2.47.03-1.01.06-1.63.08-1.84h-.07l-3.82,10.59h-1.84Z"/>
  <path d="M28.94,20.36h-7.2V7.65h7.2v1.75h-5.12v3.46h4.8v1.74h-4.8v3.99h5.12v1.76Z"/>
  <path d="M42.04,13.88c0,2.1-.58,3.7-1.75,4.81-1.17,1.11-2.85,1.66-5.04,1.66h-3.56V7.65h3.93c2.02,0,3.6.54,4.73,1.63,1.13,1.09,1.69,2.62,1.69,4.6ZM39.85,13.95c0-3.04-1.42-4.56-4.27-4.56h-1.8v9.22h1.48c3.06,0,4.6-1.55,4.6-4.66Z"/>
  <path d="M44.77,20.36V7.65h2.08v12.7h-2.08Z"/>
  <path d="M55.63,9.25c-1.2,0-2.14.42-2.82,1.27s-1.03,2.01-1.03,3.5.33,2.74.99,3.54c.66.8,1.61,1.2,2.86,1.2.54,0,1.06-.05,1.57-.16.5-.11,1.03-.25,1.58-.41v1.78c-1,.38-2.13.56-3.39.56-1.86,0-3.29-.56-4.29-1.69-1-1.13-1.5-2.74-1.5-4.83,0-1.32.24-2.48.73-3.47.48-.99,1.18-1.75,2.1-2.28.92-.53,1.99-.79,3.23-.79,1.3,0,2.5.27,3.6.82l-.75,1.73c-.43-.2-.88-.38-1.36-.53s-.98-.23-1.51-.23Z"/>
  <path d="M71.48,7.65v8.22c0,.94-.2,1.76-.6,2.46-.4.7-.99,1.25-1.75,1.62-.76.38-1.68.57-2.74.57-1.58,0-2.81-.42-3.68-1.25s-1.31-1.98-1.31-3.44V7.65h2.09v8.04c0,1.05.24,1.82.73,2.32.49.5,1.24.75,2.25.75,1.96,0,2.94-1.03,2.94-3.08V7.65h2.08Z"/>
  <path d="M74.74,7.65h3.78c1.75,0,3.02.25,3.8.76.78.51,1.17,1.31,1.17,2.42,0,.74-.19,1.36-.57,1.85-.38.49-.93.8-1.65.93v.09c.89.17,1.55.5,1.97,1,.42.5.63,1.17.63,2.01,0,1.14-.4,2.03-1.2,2.68-.8.65-1.91.97-3.33.97h-4.59V7.65ZM76.82,12.9h2c.87,0,1.51-.14,1.91-.41.4-.28.6-.74.6-1.4,0-.6-.22-1.03-.65-1.29-.43-.27-1.12-.4-2.06-.4h-1.8v3.51ZM76.82,14.59v4.02h2.21c.87,0,1.53-.17,1.97-.5s.67-.86.67-1.58c0-.66-.23-1.15-.68-1.47-.45-.32-1.14-.48-2.06-.48h-2.11Z"/>
  <path d="M93.7,20.36h-7.2V7.65h7.2v1.75h-5.12v3.46h4.8v1.74h-4.8v3.99h5.12v1.76Z"/>
</svg>