<?xml version="1.0" encoding="UTF-8"?>
<svg id="Layer_1" data-name="Layer 1" xmlns="http://www.w3.org/2000/svg" viewBox="0 0 99 28">
  <path d="M8.81,18.94c-1.9,0-3.25-1.06-3.28-2.62h1.32c.08.79.64,1.57,1.96,1.57,1.2,0,1.9-.68,1.9-1.57,0-2.55-5.13-.92-5.13-4.44,0-1.56,1.26-2.62,3.14-2.62s2.99.99,3.14,2.43h-1.36c-.08-.64-.68-1.36-1.83-1.37-1.02-.03-1.82.5-1.82,1.52,0,2.44,5.11.92,5.11,4.42,0,1.34-1.1,2.67-3.15,2.67Z"/>
  <path d="M19.28,14.53v4.31h-1.24v-9.46h1.24v4.38l3.92-4.38h1.56l-4.3,4.73,4.34,4.72h-1.62l-3.9-4.31Z"/>
  <path d="M30.44,9.39h1.24v9.46h-1.24v-9.46Z"/>
  <path d="M45.48,9.38v9.47h-1.24l-4.98-7.53v7.53h-1.24v-9.47h1.24l4.98,7.51v-7.51h1.24Z"/>
  <path d="M52.62,10.16h-1.31v-1.13h2.56v9.81h-1.25v-8.68Z"/>
  <path d="M63.7,18.96c-2.11,0-3.71-1.49-3.71-3.85s1.66-3.83,3.77-3.83,3.77,1.48,3.77,3.83-1.7,3.85-3.82,3.85ZM63.7,17.88c1.29,0,2.56-.88,2.56-2.77s-1.24-2.75-2.52-2.75-2.49.88-2.49,2.75,1.16,2.77,2.45,2.77Z"/>
  <path d="M76.65,18.96c-2.11,0-3.71-1.49-3.71-3.85s1.66-3.83,3.77-3.83,3.77,1.48,3.77,3.83-1.7,3.85-3.82,3.85ZM76.65,17.88c1.29,0,2.56-.88,2.56-2.77s-1.24-2.75-2.52-2.75-2.49.88-2.49,2.75,1.16,2.77,2.45,2.77Z"/>
  <path d="M90.88,16.66h-5.03v-.94l4.77-6.59h1.48v6.46h1.36v1.07h-1.36v2.18h-1.22v-2.18ZM90.94,15.59v-5.17l-3.66,5.17h3.66Z"/>
</svg>