<?xml version="1.0" encoding="UTF-8"?>
<svg id="Layer_1" data-name="Layer 1" xmlns="http://www.w3.org/2000/svg" viewBox="0 0 99 28">
  <path d="M64.97,2.25c.3-.03.6-.05.9-.06.21,0,.42,0,.62,0,.95,0,1.92,0,2.85.24.82.22,1.53.8,1.99,1.51.13.2.24.41.32.63.3.79.5,3.44.48,4.35-.02.85-.47,1.56-1.11,2.08s-1.74.5-2.56.49c-.03,0-.05,0-.08,0-1.05-.02-2.1-.04-3.15-.06-.91-.02-1.89.13-2.69-.37-.19-.12-.37-.27-.52-.44-.39-.45-.55-1.03-.6-1.61-.03-.27-.02-.54-.02-.81,0-1.33.09-2.82.69-4.03.28-.57.7-1.07,1.25-1.4.5-.3,1.06-.43,1.63-.5ZM68.15,4.73c-.03.05-.01.12-.02.21,0,.14-.04.28-.09.42-.38,1.01-1.7,1.23-2.37.37-.19-.24-.27-.52-.34-.81-.05-.23-.04-.25-.28-.25-.2,0-.39,0-.59,0-.05,0-.1,0-.14.03-.07.04-.09.15-.08.23.02.89.54,1.75,1.33,2.16,1.09.58,2.56.24,3.24-.8.16-.25.28-.53.34-.82.04-.18.14-.69-.01-.82s-.79-.08-.94.02c-.03.02-.04.03-.05.05Z"/>
  <path d="M51.55,25.18c-.03.14-.09.28-.18.4-.26.36-.75.49-1.19.44-.26-.04-.53-.13-.72-.32-.42-.39-.44-1.03-.43-1.6.04-2.44.04-4.89,0-7.33,0-.45,0-.95.28-1.31.27-.35.75-.49,1.19-.53.29-.03.59-.04.85.07.4.16.66.54.9.9.38.58.76,1.16,1.14,1.74.19.29.38.58.57.87s.35.61.57.86c.17-.09.32-.36.43-.51.14-.18.27-.37.39-.56.25-.38.48-.77.71-1.17s.46-.74.71-1.1c.23-.34.47-.69.82-.91.07-.04.14-.08.22-.11.31-.13.65-.14.98-.09.31.05.63.15.87.36.7.61.56,1.72.57,2.54.02,1.04-.02,2.09-.06,3.13-.02.41-.03.81-.04,1.22-.02.76-.04,1.52-.02,2.29,0,.33.05.6-.11.9-.15.27-.39.5-.68.61-.47.18-1.04.07-1.4-.28-.35-.34-.4-.76-.4-1.21v-4.35c0-.24,0-.49,0-.73-.55.75-1.09,1.52-1.64,2.27-.24.32-.46.7-.84.86-.33.14-.71.11-1.02-.08-.44-.26-.71-.72-.98-1.15-.44-.69-.91-1.35-1.43-1.98,0,1.72,0,3.43-.01,5.15,0,.24,0,.49-.06.72Z"/>
  <path d="M40.72,17.49v1.75c.79,0,1.59,0,2.38,0,.4,0,.79,0,1.19,0,.36,0,.72-.06,1.08-.04.29.02.59.09.83.25.34.23.54.63.54,1.04,0,.45-.25.9-.64,1.13-.44.26-.98.17-1.46.17-.33,0-.66,0-1,0h-2.93v1.68h4.98c.19,0,.39,0,.58,0,.89.04,1.41,1.07,1.06,1.85-.31.68-1.1.71-1.74.7-1-.02-2,0-3.01.01-.91.02-1.81.07-2.72.05-.16,0-.32,0-.47-.03-.44-.06-.88-.3-1.09-.69-.13-.25-.16-.55-.18-.83-.14-1.94.08-3.85.08-5.78.01-.5.02-1,0-1.5-.01-.46-.12-.99.02-1.43.25-.78,1.09-.9,1.79-.95.96-.07,1.9,0,2.86.04.9.04,1.81.06,2.72.05.64,0,1.34,0,1.7.64.24.42.23.98-.04,1.38-.14.21-.35.38-.6.46-.18.06-.38.06-.57.05-1.63,0-3.25,0-4.88,0h-.48Z"/>
  <path d="M47.45,9.17c.13.12.6-.72,1.1-.18s-.79,1.29-1.18,1.53c-2.5,1.57-5.7,1.63-8.27.17-.29-.16-1.37-.89-1.5-1.13-.24-.45.18-.89.67-.67.51.24.62.92,1.03.2s.61-1.61.85-2.4c-.35.11-.61.41-1,.43s-.95-.35-1.23-.58c-.46-.38-.68-.68-.52-1.32.12-.47,1.68-2.54,2.09-2.88,1.41-1.19,2.59,1.57,3.29,2.33.84.93,1.7,1.04,2.83.42.55-.3,1.14-1.37,1.72-.43.62,1.01-.28,1.51-.74,2.28l.87,2.23ZM44.89,10.56c-.56-1.62-2.98-1.6-3.58-.04,1.16.41,2.4.28,3.58.04Z"/>
  <path d="M62.92,14.97c.18-.02.37,0,.54.05.26.08.49.24.64.47.16.23.22.52.25.8.08.7.02,1.42-.01,2.12s-.08,1.42-.08,2.12c0,.68.02,1.41.27,2.06.75,1.91,4.19,1.76,4.58-.41.3-1.65-.01-3.38,0-5.04,0-.63-.02-1.35.48-1.82.28-.26.67-.39,1.05-.34s.73.29.9.63c.17.33.15.71.14,1.08-.06,1.24.03,2.48.04,3.72.01,1.57-.08,3.34-1.3,4.49-.53.5-1.21.81-1.91.98-2.77.67-6.03-.13-6.63-3.26-.23-1.22-.2-2.51-.2-3.75,0-.64.01-1.28.04-1.92s.03-1.34.6-1.74c.18-.13.39-.2.6-.23Z"/>
  <path d="M29.3,1.94c.23-.09.66,0,.88.04.63.13,1.2.47,1.6.97.41-.67,1.66-1.16,2.41-1.02.43.08.44,1.21.38,1.55-.16.92-1.27,1.34-.77,2.41.62,1.33,1.81,2.69,2.47,4.03.28.7-.64,1.16-1.17,1.39-1.91.81-5.37.8-7.18-.27-.55-.32-.89-.6-.57-1.28,0,0,2.48-4.02,2.48-4.02.11-.49-.06-.89-.34-1.28-.19-.26-.39-.51-.48-.82-.08-.28-.05-.57-.03-.86.02-.24.05-.71.29-.84.01,0,.02-.01.04-.02Z"/>
  <path d="M33.05,17.49v7.24c0,.63-.46,1.21-1.1,1.3-.55.08-1.13-.24-1.35-.75-.18-.41-.1-.83-.11-1.25,0-.27,0-.54,0-.8,0-.64,0-1.29,0-1.93,0-1.12,0-2.25,0-3.37,0-.02,0-.44,0-.44-.82,0-1.63,0-2.45,0-.66,0-1.17-.57-1.19-1.22-.01-.47.25-.94.67-1.16.4-.21.84-.14,1.28-.15l1.54-.03c1.03-.02,2.06-.04,3.08-.06.91-.02,2.18-.16,2.91.51.35.32.43.87.27,1.31-.15.4-.58.81-1.03.81-.84,0-1.68,0-2.52,0Z"/>
  <path d="M59.94,11.58h-1.1c.07-1.02.22-2.08.15-3.1-.02-.33-.14-1.24-.55-1.28-.26,0-.42.2-.58.37-1.07,1.26-1.5,3.2-3.31,3.85-.92.33-4.07.17-4.96-.26-.94-.46.04-1.07.56-1.36.73-.42,2.75-1.26,3.51-.95.61.25.51.53,1.27.1,2.43-1.42,1.33-4.55,2.61-6.45.38-.57.5-.36,1.09-.06s1.6,1.05,1.75,1.76c.11.52-.29,1.5-.4,2.05-.33,1.69-.19,3.64-.02,5.35Z"/>
</svg>