<?xml version="1.0" encoding="UTF-8"?>
<svg id="Layer_1" data-name="Layer 1" xmlns="http://www.w3.org/2000/svg" viewBox="0 0 99 28">
  <defs>
    <style>
      .cls-1 {
        fill: none;
        stroke: #000;
        stroke-miterlimit: 10;
        stroke-width: .25px;
      }
    </style>
  </defs>
  <polygon points="77.88 10.13 79.05 14.1 79.09 13.98 80.06 10.07 81.94 10.07 83.06 14.04 84.15 10.13 85.86 10.13 83.93 16.06 81.95 16.05 81.02 12.53 80.09 16.05 78.03 16.05 76.17 10.13 77.88 10.13"/>
  <path d="M63.52,16.05h-1.74V7.84h3.39s.11,0,.18,0c1.95.2,3.19,1.9,2.62,3.85-.23.79-1.38,2.01-2.24,2.01h-2.21v.08s0,2.26,0,2.26ZM63.52,12.08h1.71c.2,0,.44-.19.49-.23.72-.49.77-1.68.03-2.15-.06-.04-.32-.19-.47-.19h-1.76v2.57Z"/>
  <path d="M58.54,16.05v-.45c-1.71,1.47-4.28.42-4.87-1.65-.8-2.83,2.48-5.3,4.87-3.43v-.39h1.79v5.93h-1.79ZM56.62,11.48c-1.93.33-1.56,3.52.59,3.21s1.71-3.6-.59-3.21Z"/>
  <path d="M73.6,16.05v-.45c-1.74,1.5-4.37.39-4.89-1.74-.69-2.82,2.52-5.18,4.89-3.34v-.39h1.79v5.93h-1.79ZM73.19,14.24c1.55-1.51-.83-3.85-2.33-2.3s.8,3.8,2.33,2.3Z"/>
  <path d="M37.66,13.73c.52,1.22,2.07,1.27,2.93.38.38.29.9.5,1.28.78.17.12-.01.27-.14.4-1.7,1.79-5.22,1.11-5.86-1.41-.83-3.28,3.4-5.38,5.67-3.03.59.61,1.15,1.82.86,2.71-.01.04-.12.04-.13.04h-4.54M40.56,12.42c-.47-1.3-2.39-1.28-2.86,0h2.86Z"/>
  <polygon points="91.96 10.13 91.96 11.11 89.28 14.49 92.13 14.49 92.13 16.05 86.53 16.05 86.53 15.24 89.39 11.69 86.7 11.69 86.7 10.13 91.96 10.13"/>
  <polygon points="36.14 9.51 33.73 9.51 33.73 16.05 32 16.05 32 9.51 29.59 9.51 29.59 7.84 36.06 7.84 36.14 7.92 36.14 9.51"/>
  <path d="M50.68,16.04l-1.83-.02v-5.95c.48,0,1.36.02,1.83.02"/>
  <path d="M50.67,10.91c.61-.89,1.7-1.33,2.72-.86l-.28,1.53s-.64-.11-.7-.11c-.26,0-.52.01-.77.08-.52.13-.94.52-.98,1.1"/>
  <path d="M45.21,10.91c.69-.87,1.73-1.34,2.8-.86,0,0-.34,1.53-.34,1.53-.34-.12-.7-.16-1.05-.11-.33.04-.69.14-.97.31-.16.1-.3.26-.37.43-.14.34-.08.74-.08,1.1,0,.4.01.8,0,1.21s0,.76,0,1.15v.39h-1.74v-6.06s.07,0,.08,0h1.65v.92Z"/>
  <path d="M92.85,8.19c.06-.02.12-.03.18-.03.19-.02.38,0,.56.08.22.09.41.26.52.47,0,0,0,0,0,.01.08.17.11.35.1.54,0,.15-.04.3-.11.43-.06.12-.15.23-.26.31s-.23.14-.35.18-.26.05-.4.04-.26-.04-.39-.09-.23-.13-.32-.23c-.1-.11-.17-.24-.21-.38-.08-.26-.07-.55.05-.8.02-.04.04-.08.07-.12.13-.2.33-.35.56-.41ZM92.9,8.35c-.21.05-.39.18-.49.37-.12.22-.14.49-.08.72.01.04.02.08.04.12.06.15.17.29.31.38s.31.13.48.13c.14,0,.28-.03.4-.09.11-.05.2-.13.28-.23.17-.21.22-.51.16-.77,0-.04-.02-.07-.03-.11-.08-.22-.24-.41-.46-.49-.05-.02-.1-.04-.16-.05-.15-.03-.31-.03-.46,0Z"/>
  <path d="M92.81,8.68s0,0,0,0c.03-.03.1-.03.14-.03.05,0,.1,0,.16,0,.15.02.34.06.41.21,0,.02.01.04.02.06.01.06,0,.13-.03.19-.02.04-.04.08-.06.11-.01.02-.03.04-.05.06,0,0-.02.02-.02.03,0,.02.02.06.03.08l.07.17.03.08s.03.06.03.08c-.08,0-.14-.05-.18-.11-.04-.05-.07-.12-.1-.17-.03-.04-.06-.08-.1-.1-.03-.01-.06-.02-.09-.02-.02,0-.06,0-.07.02,0,.02,0,.05,0,.08,0,.03,0,.07,0,.1v.2s0,0,0,.01c0,0,0,0-.01,0-.04,0-.08-.02-.11-.04-.01,0-.02-.02-.03-.03-.02-.03,0-.08,0-.11,0-.05,0-.1,0-.14v-.57s0-.06,0-.09c0-.02,0-.05,0-.07ZM92.98,9.17s0,0,0,0c.02,0,.04,0,.06,0,.07,0,.15.01.22-.02.04-.02.07-.04.09-.08.02-.04.02-.09,0-.13,0-.02-.02-.05-.03-.06-.01-.01-.03-.01-.05-.02-.09-.01-.17-.02-.26-.03-.01,0-.02,0-.03,0-.02,0-.02.03-.02.05,0,.05,0,.1,0,.15,0,.02,0,.05,0,.07,0,.02,0,.04,0,.05Z"/>
  <g>
    <path d="M33.28,20.01c0,.2-.07.36-.22.48s-.35.18-.61.18c-.24,0-.45-.04-.64-.14v-.44c.15.07.28.12.38.14s.2.04.29.04c.1,0,.18-.02.24-.06.06-.04.08-.1.08-.18,0-.04-.01-.08-.04-.12-.02-.03-.06-.07-.11-.1-.05-.03-.14-.08-.29-.15-.14-.06-.24-.13-.31-.19s-.12-.13-.16-.21-.06-.17-.06-.28c0-.2.07-.35.2-.47s.32-.17.56-.17c.12,0,.23.01.33.04s.22.07.33.12l-.15.37c-.12-.05-.22-.08-.3-.1-.08-.02-.16-.03-.23-.03-.09,0-.16.02-.21.06s-.07.1-.07.16c0,.04,0,.08.03.11s.05.06.09.09c.04.03.14.08.3.16.21.1.35.2.43.3.08.1.12.22.12.37Z"/>
    <path d="M35.52,18.39v1.45c0,.17-.04.31-.11.44s-.18.22-.32.29c-.14.07-.31.1-.5.1-.29,0-.51-.07-.67-.22-.16-.15-.24-.35-.24-.61v-1.45h.47v1.38c0,.17.04.3.1.38.07.08.19.12.35.12s.27-.04.34-.12c.07-.08.1-.21.1-.38v-1.37h.48Z"/>
    <path d="M37.4,20.01c0,.2-.07.36-.22.48s-.35.18-.61.18c-.24,0-.45-.04-.64-.14v-.44c.15.07.28.12.38.14s.2.04.29.04c.1,0,.18-.02.24-.06.06-.04.08-.1.08-.18,0-.04-.01-.08-.04-.12-.02-.03-.06-.07-.11-.1-.05-.03-.14-.08-.29-.15-.14-.06-.24-.13-.31-.19s-.12-.13-.16-.21-.06-.17-.06-.28c0-.2.07-.35.2-.47s.32-.17.56-.17c.12,0,.23.01.33.04s.22.07.33.12l-.15.37c-.12-.05-.22-.08-.3-.1-.08-.02-.16-.03-.23-.03-.09,0-.16.02-.21.06s-.07.1-.07.16c0,.04,0,.08.03.11s.05.06.09.09c.04.03.14.08.3.16.21.1.35.2.43.3.08.1.12.22.12.37Z"/>
    <path d="M38.67,20.64h-.48v-1.85h-.61v-.4h1.7v.4h-.61v1.85Z"/>
    <path d="M40.78,20.64l-.16-.53h-.82l-.16.53h-.51l.79-2.26h.58l.8,2.26h-.51ZM40.51,19.7c-.15-.48-.24-.76-.25-.82s-.03-.11-.04-.15c-.03.13-.13.46-.29.97h.59Z"/>
    <path d="M41.58,20.64v-2.25h.48v2.25h-.48Z"/>
    <path d="M44.62,20.64h-.61l-.98-1.7h-.01c.02.3.03.51.03.64v1.06h-.43v-2.25h.6l.98,1.68h.01c-.02-.29-.02-.5-.02-.62v-1.06h.43v2.25Z"/>
    <path d="M46.56,20.64l-.16-.53h-.82l-.16.53h-.51l.79-2.26h.58l.8,2.26h-.51ZM46.28,19.7c-.15-.48-.24-.76-.25-.82s-.03-.11-.04-.15c-.03.13-.13.46-.29.97h.59Z"/>
    <path d="M47.35,18.39h.7c.32,0,.55.05.69.14.14.09.22.23.22.43,0,.13-.03.24-.09.33-.06.09-.15.14-.25.16v.02c.14.03.25.09.31.18s.09.2.09.35c0,.21-.07.36-.22.48-.15.12-.35.17-.6.17h-.84v-2.25ZM47.83,19.28h.28c.13,0,.22-.02.28-.06s.09-.11.09-.2c0-.09-.03-.15-.09-.19-.06-.04-.16-.06-.3-.06h-.25v.5ZM47.83,19.66v.59h.31c.13,0,.23-.02.29-.08s.09-.13.09-.23c0-.19-.13-.28-.4-.28h-.29Z"/>
    <path d="M49.47,20.64v-2.25h.48v1.85h.91v.39h-1.39Z"/>
    <path d="M51.85,19.31l.47-.93h.51l-.75,1.37v.87h-.47v-.86l-.75-1.39h.52l.47.93Z"/>
    <path d="M54.89,18.75c-.18,0-.32.07-.42.2-.1.13-.15.32-.15.56,0,.5.19.75.56.75.16,0,.35-.04.57-.12v.4c-.18.08-.39.12-.62.12-.33,0-.58-.1-.75-.3-.17-.2-.26-.48-.26-.85,0-.23.04-.44.13-.61s.21-.31.37-.4c.16-.09.35-.14.56-.14s.44.05.66.16l-.15.39c-.08-.04-.17-.07-.25-.1s-.17-.04-.25-.04Z"/>
    <path d="M56.42,19.77v.86h-.48v-2.25h.65c.31,0,.53.06.68.17.15.11.22.28.22.51,0,.13-.04.25-.11.35s-.18.18-.31.24c.34.5.56.83.66.98h-.53l-.54-.86h-.25ZM56.42,19.39h.15c.15,0,.26-.03.33-.08.07-.05.11-.13.11-.24s-.04-.18-.11-.23-.19-.07-.34-.07h-.14v.61Z"/>
    <path d="M59.39,20.64l-.16-.53h-.82l-.16.53h-.51l.79-2.26h.58l.8,2.26h-.51ZM59.12,19.7c-.15-.48-.24-.76-.25-.82s-.03-.11-.04-.15c-.03.13-.13.46-.29.97h.59Z"/>
    <path d="M60.66,20.64h-.47v-2.25h1.29v.39h-.82v.58h.76v.39h-.76v.89Z"/>
    <path d="M62.78,20.64h-.48v-1.85h-.61v-.4h1.7v.4h-.61v1.85Z"/>
    <path d="M65.03,20.64h-1.29v-2.25h1.29v.39h-.82v.49h.76v.39h-.76v.58h.82v.39Z"/>
    <path d="M67.37,19.49c0,.37-.1.65-.32.85-.21.2-.51.29-.91.29h-.64v-2.25h.71c.37,0,.65.1.85.29.2.19.3.46.3.81ZM66.87,19.5c0-.48-.21-.72-.64-.72h-.25v1.46h.2c.46,0,.69-.25.69-.74Z"/>
    <path d="M70.2,19.09c0,.24-.08.43-.23.56-.15.13-.37.19-.64.19h-.2v.8h-.48v-2.25h.72c.27,0,.48.06.62.18.14.12.21.29.21.52ZM69.13,19.45h.16c.15,0,.26-.03.33-.09.07-.06.11-.14.11-.25s-.03-.19-.09-.25-.16-.08-.29-.08h-.22v.67Z"/>
    <path d="M71.92,20.64h-1.29v-2.25h1.29v.39h-.82v.49h.76v.39h-.76v.58h.82v.39Z"/>
    <path d="M73.26,20.64h-.48v-1.85h-.61v-.4h1.7v.4h-.61v1.85Z"/>
    <path d="M77.02,20.64h-.61l-.98-1.7h-.01c.02.3.03.51.03.64v1.06h-.43v-2.25h.6l.98,1.68h.01c-.02-.29-.02-.5-.02-.62v-1.06h.43v2.25Z"/>
    <path d="M79.42,18.39v1.45c0,.17-.04.31-.11.44s-.18.22-.32.29c-.14.07-.31.1-.5.1-.29,0-.51-.07-.67-.22-.16-.15-.24-.35-.24-.61v-1.45h.47v1.38c0,.17.04.3.1.38.07.08.19.12.35.12s.27-.04.34-.12c.07-.08.1-.21.1-.38v-1.37h.48Z"/>
    <path d="M80.84,20.64h-.48v-1.85h-.61v-.4h1.7v.4h-.61v1.85Z"/>
    <path d="M82.27,19.77v.86h-.48v-2.25h.65c.31,0,.53.06.68.17.15.11.22.28.22.51,0,.13-.04.25-.11.35s-.18.18-.31.24c.34.5.56.83.66.98h-.53l-.54-.86h-.25ZM82.27,19.39h.15c.15,0,.26-.03.33-.08.07-.05.11-.13.11-.24s-.04-.18-.11-.23-.19-.07-.34-.07h-.14v.61Z"/>
    <path d="M83.87,20.64v-2.25h.48v2.25h-.48Z"/>
    <path d="M85.78,20.64h-.48v-1.85h-.61v-.4h1.7v.4h-.61v1.85Z"/>
    <path d="M86.73,20.64v-2.25h.48v2.25h-.48Z"/>
    <path d="M89.82,19.51c0,.37-.09.66-.28.86-.18.2-.45.3-.79.3s-.61-.1-.79-.3-.28-.49-.28-.86.09-.66.28-.86.45-.3.8-.3.61.1.79.3c.18.2.27.48.27.86ZM88.18,19.51c0,.25.05.44.14.57s.24.19.43.19c.38,0,.57-.25.57-.76s-.19-.76-.57-.76c-.19,0-.33.06-.43.19-.1.13-.14.32-.14.57Z"/>
    <path d="M92.28,20.64h-.61l-.98-1.7h-.01c.02.3.03.51.03.64v1.06h-.43v-2.25h.6l.98,1.68h.01c-.02-.29-.02-.5-.02-.62v-1.06h.43v2.25Z"/>
  </g>
  <g>
    <circle class="cls-1" cx="16.43" cy="14" r="11.64"/>
    <path d="M25.31,21.51c1.07-1.26,1.87-2.76,2.33-4.4.08-.34-.8-2.18-2.72-3.77-1.93-1.6-1.64-4.03-1.63-4.29s.28-2.1-2.02-3.11c-2.28-.99-1.58-3.08-1.57-3.1-1.04-.3-2.14-.47-3.28-.47-.49,0-.98.03-1.46.09,0,.01.03,3.8-7.58,4.22-1.62,2-2.6,4.55-2.6,7.32,0,6.43,5.21,11.64,11.64,11.64,1.28,0,2.52-.21,3.67-.59,1.66-3.9,5.18-3.54,5.21-3.53ZM16.89,11.2c.67-1.45,2.2-2.21,3.12-1.74.85.39,1.28,2.04.68,3.51-.6,1.48-1.71,2.41-3.12,1.74-1.42-.61-1.35-2.06-.68-3.51ZM11.69,9.73c.45-1.53,1.84-2.52,2.82-2.19.9.26,1.57,1.83,1.2,3.36-.37,1.55-1.33,2.64-2.82,2.19-1.49-.38-1.65-1.83-1.2-3.36ZM8.84,10.71c.81,0,1.75,1.24,1.82,2.73.06,1.51-.47,2.74-1.82,2.73-1.33.04-1.82-1.22-1.82-2.73s.93-2.77,1.82-2.73ZM17.36,23.58c-1.06.68-2.21.71-3.51-.26-1.31-.97-1.18-1.16-3.25-1.13-2.07.03-3.21-1.33-3.06-2.64,0,0,0-1.93,2.34-2.68,2.34-.75,2.86-2.83,4.6-2.76,1.74.07,2.16,1.36,2.29,2.52.13,1.16.39,2.32,1.13,3.21.74.89.52,3.06-.54,3.74ZM19.24,16.25c.99-1.15,2.56-1.46,3.25-.82.66.56.6,2.16-.33,3.34-.94,1.19-2.18,1.76-3.25.82-1.1-.89-.66-2.19.33-3.34Z"/>
  </g>
</svg>