<?xml version="1.0" encoding="UTF-8"?>
<svg id="Layer_1" data-name="Layer 1" xmlns="http://www.w3.org/2000/svg" viewBox="0 0 99 28">
  <path d="M46.56,23.84c-.76.9-2.16,3.01-3.58,2.35-1.05-.49-.62-2.04-.98-2.89-.1-.02-.18,0-.27.04-.35.18-1.43,2.15-1.91,2.65-1.32,1.36-3.19.61-3.2-1.28,0-1.59,2.55-6.97,3.61-8.25.72-.87,2.32-1.9,3.35-1,.7.62.86,3.19,1.76,3.18.5,0,2.47-2.43,3.2-2.89,1.82-1.15,3.75-.33,3.95,1.85.18,1.97-1.32,6.43-2.64,7.93-.67.76-2.21,1.73-3.01.64-.06-.09-.27-.48-.27-.55v-1.78Z"/>
  <path d="M62.32,23.84c-.75.9-2.18,3.01-3.58,2.35-.5-.23-.73-.9-.78-1.4-.04-.37.13-2.01-.61-1.31-.86.82-1.47,2.93-2.84,3.17s-2.14-.76-2.13-2.03c.02-1.53,2.55-6.87,3.56-8.1.73-.89,2.31-1.97,3.39-1.05.7.59.86,3.19,1.76,3.18.5,0,2.04-1.93,2.55-2.37,1.01-.86,2.42-1.53,3.65-.63,1.78,1.3.65,4.8.05,6.52-.55,1.57-1.87,4.7-3.95,4.5-.42-.04-1.06-.65-1.06-1.04v-1.78Z"/>
  <path d="M31.14,1.91c1.03-.14,2.24.22,2.2,1.47-.03.82-1.33,2.68.15,2.88,2.07.27,1.64-2.53,3-3.54.91-.69,2.92-.83,3.4.43.2.52.07.76-.07,1.26-.55,1.93-1.78,5.2-2.63,7.03-.71,1.53-2.26,2.91-3.96,1.74-1.18-.81-.29-1.53-.1-2.44.26-1.23-1.49-1.03-2.04-.13-.7,1.14-.91,2.52-2.61,2.67s-2.08-.73-1.96-2.23c.11-1.36,1.66-5.75,2.26-7.12.43-.97,1.26-1.86,2.36-2.01Z"/>
  <path d="M28.68,15.21c.84-.17,2.01,0,2.31.93.49,1.54-1.1,3.09-.69,4.34.12.39.57.43.91.26,1.42-.74,1.52-4.32,3.42-5.23.94-.45,2.13-.28,2.47.82.68,2.23-1.52,6.6-3.01,8.3-3.73,4.25-8.86,2.13-8.48-3.56.1-1.54,1.35-5.5,3.08-5.85Z"/>
  <path d="M72.4,1.73c.99,1.09-.04,4.03-.56,5.25-.91,2.11-2.99,5.2-5.47,5.46-4.52.47-5.48-4-4.41-7.51.53-1.75,1.76-4.52,4.08-3.62,2.2.86-.7,4.37.16,5.22.21.2.73.09.95-.05.92-.58,1.47-3.5,2.55-4.55.69-.67,1.99-.98,2.7-.19Z"/>
  <path d="M74.05,18.89c.33-.27.84-1.32,1.14-1.73.68-.93,1.48-1.88,2.76-1.79,2.05.14,1.64,2.68,1.01,4.01-1.11,2.31-4.55,6.55-7.08,7.22-.8.21-1.79.19-2.35-.53-.94-1.22.71-2.56.73-3.83.02-1.77-2.48-5.14-.81-6.73,1.12-1.06,2.83.03,3.38,1.16.27.56.4,1.81.67,2.15.07.09.14.18.27.18.11,0,.21-.04.29-.12Z"/>
  <path d="M57.56,1.27c1.3-.13,3.23.25,3.6,1.72.17.68-.16,1.74-.85,2.03-.98.42-2.03-.22-3.08.11-1.17.37-2.3,2.25-1.48,3.35.62.83,1.86.55,2.09-.45-.06-.28-1.05-.19-1.16-.76-.08-.42.51-.76.87-.82,3.05-.51,3.59,2.05,1.89,4.08-2.48,2.97-8.02,2.24-7.89-2.15.1-3.4,2.46-6.77,6-7.12Z"/>
  <path d="M24.57,18.8c-.82.8-2.45-.03-3.59.38-1.06.38-1.86,1.91-1.51,3,.28.85,1.51,1.07,2.03.34.69-.98-.74-.48-.89-1.21-.23-1.11,2.23-1.04,2.89-.61,1.81,1.18.19,3.71-1.06,4.67-2.04,1.57-5.81,1.26-6.75-1.42-.67-1.9.4-5.15,1.71-6.63,1.5-1.69,5.46-3.07,7.2-1.18.65.71.67,1.98-.03,2.66Z"/>
  <path d="M19.59,5.8c-1.41.03-2.66,0-2.45-1.77.16-1.36,1.48-1.79,2.67-1.88,1.31-.1,5.36-.07,6.49.35,1.73.64,1.1,3.32-.4,3.64-.92.19-1.58-.51-2.02.8-.56,1.63-.71,4.71-2.15,5.78-1.66,1.24-4.38.33-3.83-2.01l1.69-4.91Z"/>
  <path d="M75.71,4.89c-1.34-.1-2.67.02-2.44-1.75.13-.98.78-1.53,1.7-1.76,1.23-.31,5.76-.22,7.05.06,2.25.49,1.68,3.43-.03,3.78-.91.19-1.5-.54-1.98.84-.67,1.89-.63,5.45-2.96,6.15-1.63.49-3.39-.47-3.04-2.31l1.69-5.01Z"/>
  <path d="M44.93,9.53c2.14.29,3.1,2.5.63,3.33-1.45.49-5.31.59-5.83-1.27-.39-1.37.76-5.37,1.35-6.76.96-2.23,2.43-3.1,4.88-2.84,1.31.14,3.65,1.3,2.47,2.9-.82,1.1-2.89.21-3.4,1.16-.32.59.72.63,1.06.73,1.24.38,1.24,1.54.04,2.01-.45.18-1.33.12-1.2.74Z"/>
  <path d="M79.83,23.25c.53-.32,1.2.15,1.31.86.09-.53.74-1.49,1.14-.6.24.53.34,2.43-.72,1.95l.04-1.19c-.22,0-.27,1.15-.72.95l-.47-1.07-.05,1.27c-.16.19-.35.11-.55.06l.02-2.23Z"/>
  <path d="M78.44,23.83h-.45c-.02-.85,1.03-.67,1.6-.64.08.12.04.48-.04.59-.06.08-.19.02-.23.06-.25.22-.04,1.21-.18,1.55-.12.21-.68.24-.68.04v-1.6Z"/>
</svg>