<?xml version="1.0" encoding="UTF-8"?>
<svg id="Layer_1" data-name="Layer 1" xmlns="http://www.w3.org/2000/svg" viewBox="0 0 99 28">
  <path d="M67.84,8.66l-1.28,3.82,4.47-.96c-.43,1.57-4.35,1.45-5,2.24-.61,2.02-1.63,4.1-2.18,6.11-2.17,7.98,3.8,5.04,5.49.48l.84.31c-1.33,2.79-3.36,5.92-6.93,5.43-2.14-.3-2.6-3.42-2.02-5.11-1.07.97-1.77,2.23-2.88,3.18-3.8,3.23-9.37,2.72-9.69-2.97l-2.24,2.76c-9.46,7.52-13.95-5.67-5.15-10.44,4.16-2.26,7.67-.49,6.54,4.39l-8.64,2.21c-.59,5.83,4.11,5.56,7.37,2.25,3.07-3.12,3.11-7.57,7.88-9.35,4.07-1.52,6.38.61,5.65,4.78l-8.48,2.12c-1.04,1.67.17,4.77,2.31,4.87,4.22.19,8.66-6.82,9.47-10.49l-2.13.1.46-1.24c.55-.13,1.81-.08,2.21-.45s.85-2.71,1.21-3.36l2.72-.68ZM39.51,18.85l5.76-1.38c.71-1.18.49-3.92-1.31-3.82-2.24.12-3.98,3.26-4.44,5.2ZM51.65,18.85l5.76-1.38c.63-1.15.58-3.77-1.17-3.83-2.21-.07-4.17,3.3-4.58,5.21Z"/>
  <path d="M32.46,26.07l-2.09.19c-2.46-5.39-2.82-11.57-2.06-17.39l2.88-.84c-.91,4.33-1.06,8.84-.61,13.25.02.24.1,1.17.4,1.19,1.49-8.13,7.36-15.95,14.88-19.47.53-.25,3.12-1.38,3.46-1.23.14.06.88.78.74.96-9.55,3.54-16.46,13.37-17.59,23.35Z"/>
  <path d="M49.95,13.85s.63-4.69,3.35-6.04c2.97-1.47,4.41-1.61,4.91-2.72,0,0,.85,3.23-4.05,4.91-2.99,1.03-4.21,3.85-4.21,3.85Z"/>
  <path d="M53.36,6.78s.62-1.52,1.36-2.22c.89-.83,2.45-1.05,2.59-1.58s.6,1.8-1.29,2.63-2.66,1.16-2.66,1.16Z"/>
  <path d="M53.11,4.34s0,1.44-1,2.94-1.66,1.97-1.66,2.63c0,0-.89-3.33,2.66-5.57Z"/>
</svg>